<svg width="58" height="58" viewBox="0 0 58 58" fill="none" xmlns="http://www.w3.org/2000/svg">
<path d="M50.75 36.3454V10.875C50.75 8.37661 48.7171 6.34375 46.2188 6.34375H44.4062V4.53125C44.4062 3.03204 43.1867 1.8125 41.6875 1.8125C40.1883 1.8125 38.9688 3.03204 38.9688 4.53125V6.34375H34.4375V4.53125C34.4375 3.03204 33.218 1.8125 31.7188 1.8125C30.2195 1.8125 29 3.03204 29 4.53125V6.34375H23.5625V4.53125C23.5625 3.03204 22.343 1.8125 20.8438 1.8125C19.3445 1.8125 18.125 3.03204 18.125 4.53125V6.34375H13.5938V4.53125C13.5938 3.03204 12.3742 1.8125 10.875 1.8125C9.37579 1.8125 8.15625 3.03204 8.15625 4.53125V6.34375H6.34375C3.84536 6.34375 1.8125 8.37661 1.8125 10.875V47.125C1.8125 49.6234 3.84536 51.6562 6.34375 51.6562H36.815C38.6988 54.9014 42.2037 57.0938 46.2188 57.0938C52.2156 57.0938 57.0938 52.2156 57.0938 46.2188C57.0938 41.8403 54.4877 38.0679 50.75 36.3454ZM40.7812 4.53125C40.7812 4.03122 41.1875 3.625 41.6875 3.625C42.1875 3.625 42.5938 4.03122 42.5938 4.53125V9.96875C42.5938 10.4688 42.1875 10.875 41.6875 10.875C41.1875 10.875 40.7812 10.4688 40.7812 9.96875V4.53125ZM30.8125 4.53125C30.8125 4.03122 31.2187 3.625 31.7188 3.625C32.2188 3.625 32.625 4.03122 32.625 4.53125V9.96875C32.625 10.4688 32.2188 10.875 31.7188 10.875C31.2187 10.875 30.8125 10.4688 30.8125 9.96875V4.53125ZM19.9375 4.53125C19.9375 4.03122 20.3437 3.625 20.8438 3.625C21.3438 3.625 21.75 4.03122 21.75 4.53125V9.96875C21.75 10.4688 21.3438 10.875 20.8438 10.875C20.3437 10.875 19.9375 10.4688 19.9375 9.96875V4.53125ZM9.96875 4.53125C9.96875 4.03122 10.375 3.625 10.875 3.625C11.375 3.625 11.7812 4.03122 11.7812 4.53125V9.96875C11.7812 10.4688 11.375 10.875 10.875 10.875C10.375 10.875 9.96875 10.4688 9.96875 9.96875V4.53125ZM6.34375 8.15625H8.15625V9.96875C8.15625 11.468 9.37579 12.6875 10.875 12.6875C12.3742 12.6875 13.5938 11.468 13.5938 9.96875V8.15625H18.125V9.96875C18.125 11.468 19.3445 12.6875 20.8438 12.6875C22.343 12.6875 23.5625 11.468 23.5625 9.96875V8.15625H29V9.96875C29 11.468 30.2195 12.6875 31.7188 12.6875C33.218 12.6875 34.4375 11.468 34.4375 9.96875V8.15625H38.9688V9.96875C38.9688 11.468 40.1883 12.6875 41.6875 12.6875C43.1867 12.6875 44.4062 11.468 44.4062 9.96875V8.15625H46.2188C47.718 8.15625 48.9375 9.37579 48.9375 10.875V15.4062H3.625V10.875C3.625 9.37579 4.84454 8.15625 6.34375 8.15625ZM6.34375 49.8438C4.84454 49.8438 3.625 48.6242 3.625 47.125V17.2188H48.9375V35.7016C48.0668 35.4762 47.159 35.3438 46.2188 35.3438C45.6 35.3438 44.9971 35.4077 44.4062 35.5074V30.8125C44.4062 30.3116 44.0009 29.9062 43.5 29.9062H38.0625C37.5616 29.9062 37.1562 30.3116 37.1562 30.8125V36.25C37.1562 36.7509 37.5616 37.1562 38.0625 37.1562H40.2202C37.2847 39.1056 35.3438 42.4383 35.3438 46.2188C35.3438 47.4912 35.5748 48.7079 35.9781 49.8438H6.34375ZM42.5938 35.3438H38.9688V31.7188H42.5938V35.3438ZM46.2188 55.2812C41.222 55.2812 37.1562 51.2155 37.1562 46.2188C37.1562 41.222 41.222 37.1562 46.2188 37.1562C51.2155 37.1562 55.2812 41.222 55.2812 46.2188C55.2812 51.2155 51.2155 55.2812 46.2188 55.2812Z" fill="#87AD3E"/>
<path d="M47.125 44.6576V38.9688H45.3125V44.6576C44.773 44.9716 44.4062 45.5495 44.4062 46.2188C44.4062 46.3105 44.4201 46.3985 44.4332 46.4866L41.1211 49.1357L42.2539 50.5518L45.5632 47.9043C45.767 47.9837 45.9869 48.0312 46.2188 48.0312C47.2197 48.0312 48.0312 47.2197 48.0312 46.2188C48.0312 45.5495 47.6645 44.9716 47.125 44.6576Z" fill="#87AD3E"/>
<path d="M13.5938 19.9375H8.15625C7.65534 19.9375 7.25 20.3428 7.25 20.8438V26.2812C7.25 26.7822 7.65534 27.1875 8.15625 27.1875H13.5938C14.0947 27.1875 14.5 26.7822 14.5 26.2812V20.8438C14.5 20.3428 14.0947 19.9375 13.5938 19.9375ZM12.6875 25.375H9.0625V21.75H12.6875V25.375Z" fill="#87AD3E"/>
<path d="M23.5625 19.9375H18.125C17.6241 19.9375 17.2188 20.3428 17.2188 20.8438V26.2812C17.2188 26.7822 17.6241 27.1875 18.125 27.1875H23.5625C24.0634 27.1875 24.4688 26.7822 24.4688 26.2812V20.8438C24.4688 20.3428 24.0634 19.9375 23.5625 19.9375ZM22.6562 25.375H19.0312V21.75H22.6562V25.375Z" fill="#87AD3E"/>
<path d="M33.5312 19.9375H28.0938C27.5928 19.9375 27.1875 20.3428 27.1875 20.8438V26.2812C27.1875 26.7822 27.5928 27.1875 28.0938 27.1875H33.5312C34.0322 27.1875 34.4375 26.7822 34.4375 26.2812V20.8438C34.4375 20.3428 34.0322 19.9375 33.5312 19.9375ZM32.625 25.375H29V21.75H32.625V25.375Z" fill="#87AD3E"/>
<path d="M38.0625 27.1875H43.5C44.0009 27.1875 44.4062 26.7822 44.4062 26.2812V20.8438C44.4062 20.3428 44.0009 19.9375 43.5 19.9375H38.0625C37.5616 19.9375 37.1562 20.3428 37.1562 20.8438V26.2812C37.1562 26.7822 37.5616 27.1875 38.0625 27.1875ZM38.9688 21.75H42.5938V25.375H38.9688V21.75Z" fill="#87AD3E"/>
<path d="M13.5938 29.9062H8.15625C7.65534 29.9062 7.25 30.3116 7.25 30.8125V36.25C7.25 36.7509 7.65534 37.1562 8.15625 37.1562H13.5938C14.0947 37.1562 14.5 36.7509 14.5 36.25V30.8125C14.5 30.3116 14.0947 29.9062 13.5938 29.9062ZM12.6875 35.3438H9.0625V31.7188H12.6875V35.3438Z" fill="#87AD3E"/>
<path d="M23.5625 29.9062H18.125C17.6241 29.9062 17.2188 30.3116 17.2188 30.8125V36.25C17.2188 36.7509 17.6241 37.1562 18.125 37.1562H23.5625C24.0634 37.1562 24.4688 36.7509 24.4688 36.25V30.8125C24.4688 30.3116 24.0634 29.9062 23.5625 29.9062ZM22.6562 35.3438H19.0312V31.7188H22.6562V35.3438Z" fill="#87AD3E"/>
<path d="M33.5312 29.9062H28.0938C27.5928 29.9062 27.1875 30.3116 27.1875 30.8125V36.25C27.1875 36.7509 27.5928 37.1562 28.0938 37.1562H33.5312C34.0322 37.1562 34.4375 36.7509 34.4375 36.25V30.8125C34.4375 30.3116 34.0322 29.9062 33.5312 29.9062ZM32.625 35.3438H29V31.7188H32.625V35.3438Z" fill="#87AD3E"/>
<path d="M13.5938 39.875H8.15625C7.65534 39.875 7.25 40.2803 7.25 40.7812V46.2188C7.25 46.7197 7.65534 47.125 8.15625 47.125H13.5938C14.0947 47.125 14.5 46.7197 14.5 46.2188V40.7812C14.5 40.2803 14.0947 39.875 13.5938 39.875ZM12.6875 45.3125H9.0625V41.6875H12.6875V45.3125Z" fill="#87AD3E"/>
<path d="M23.5625 39.875H18.125C17.6241 39.875 17.2188 40.2803 17.2188 40.7812V46.2188C17.2188 46.7197 17.6241 47.125 18.125 47.125H23.5625C24.0634 47.125 24.4688 46.7197 24.4688 46.2188V40.7812C24.4688 40.2803 24.0634 39.875 23.5625 39.875ZM22.6562 45.3125H19.0312V41.6875H22.6562V45.3125Z" fill="#87AD3E"/>
<path d="M33.5312 39.875H28.0938C27.5928 39.875 27.1875 40.2803 27.1875 40.7812V46.2188C27.1875 46.7197 27.5928 47.125 28.0938 47.125H33.5312C34.0322 47.125 34.4375 46.7197 34.4375 46.2188V40.7812C34.4375 40.2803 34.0322 39.875 33.5312 39.875ZM32.625 45.3125H29V41.6875H32.625V45.3125Z" fill="#87AD3E"/>
</svg>
