<svg width="58" height="58" viewBox="0 0 58 58" fill="none" xmlns="http://www.w3.org/2000/svg">
<path d="M52.79 50.387L46.705 42.564C48.6767 41.9749 50.38 40.7139 51.519 39C52.952 36.523 52.304 33.5 51.677 30.58C51.2979 29.08 51.071 27.5455 51 26C51.0707 24.4531 51.2975 22.9172 51.677 21.416C52.3 18.494 52.952 15.473 51.519 13C50.035 10.436 47.047 9.487 44.157 8.571C42.7184 8.17463 41.3251 7.629 40 6.943C38.7975 6.163 37.681 5.258 36.669 4.243C34.525 2.253 32.094 0 29 0C25.906 0 23.475 2.253 21.33 4.242C20.3184 5.25725 19.2021 6.16262 18 6.943C16.675 7.62762 15.2821 8.17188 13.844 8.567C10.954 9.483 7.96598 10.432 6.48198 12.996C5.04898 15.473 5.69698 18.496 6.32398 21.416C6.7031 22.9174 6.9296 24.4531 6.99998 26C6.92923 27.5469 6.70248 29.0828 6.32298 30.584C5.69998 33.506 5.04798 36.527 6.48098 39C7.62148 40.7145 9.32661 41.9751 11.3 42.563L5.20998 50.386C4.87098 50.822 4.9496 51.4502 5.38573 51.7892C5.59523 51.9521 5.86073 52.025 6.12398 51.992L13.274 51.099L15.039 57.275C15.1424 57.637 15.4404 57.9102 15.81 57.982C15.8726 57.9939 15.9362 58 16 58C16.3087 58.0003 16.6004 57.8577 16.79 57.614L23.176 49.4C24.7475 50.9299 26.8117 51.8515 29 52C31.1882 51.8515 33.2525 50.9299 34.824 49.4L41.21 57.611C41.399 57.8559 41.6906 57.9995 42 58C42.0637 58 42.1274 57.9939 42.19 57.982C42.5596 57.9102 42.8576 57.637 42.961 57.275L44.726 51.1L51.876 51.993C52.424 52.0617 52.924 51.6733 52.9927 51.1253C53.0257 50.862 52.9529 50.5965 52.79 50.387ZM16.42 54.831L14.961 49.725C14.8254 49.2514 14.3649 48.9471 13.876 49.008L8.27598 49.708L13.295 43.256L13.848 43.433C15.2847 43.8284 16.6762 44.3726 18 45.057C19.2025 45.837 20.319 46.742 21.331 47.757L21.675 48.075L16.42 54.831ZM29 50C26.69 50 24.747 48.2 22.689 46.292C21.5694 45.1734 20.3326 44.1787 19 43.325C17.5501 42.566 16.0239 41.9626 14.447 41.525C11.804 40.686 9.30698 39.894 8.21098 38C7.16498 36.191 7.70498 33.67 8.27798 31C8.69035 29.3626 8.93235 27.6871 8.99998 26C8.93273 24.3129 8.6911 22.6374 8.27898 21C7.70598 18.331 7.16598 15.81 8.21198 14C9.31198 12.106 11.805 11.314 14.448 10.475C16.0246 10.0373 17.5504 9.43388 19 8.675C20.3322 7.82125 21.5687 6.8265 22.688 5.708C24.747 3.8 26.69 2 29 2C31.31 2 33.253 3.8 35.311 5.708C36.4306 6.82663 37.6674 7.82125 39 8.675C40.4499 9.434 41.9761 10.0374 43.553 10.475C46.196 11.314 48.693 12.106 49.789 14C50.835 15.809 50.295 18.33 49.722 21C49.3096 22.6374 49.0676 24.3129 49 26C49.0672 27.6871 49.3089 29.3626 49.721 31C50.294 33.669 50.834 36.19 49.788 38C48.688 39.894 46.195 40.686 43.552 41.525C41.9754 41.9628 40.4496 42.5661 39 43.325C37.6677 44.1787 36.4312 45.1735 35.312 46.292C33.253 48.2 31.31 50 29 50ZM44.129 49.008C43.6401 48.9471 43.1796 49.2514 43.044 49.725L41.58 54.831L36.326 48.076L36.67 47.758C37.6816 46.7427 38.7979 45.8374 40 45.057C41.325 44.3724 42.7179 43.8281 44.156 43.433L44.709 43.256L49.729 49.708L44.129 49.008Z" fill="#87AD3E"/>
<path d="M29 8C19.0589 8 11 16.0589 11 26C11 35.9411 19.0589 44 29 44C38.9411 44 47 35.9411 47 26C46.9885 16.0636 38.9364 8.01162 29 8ZM29 42C20.1635 42 13 34.8365 13 26C13 17.1635 20.1635 10 29 10C37.8365 10 45 17.1635 45 26C44.9895 34.8322 37.8323 41.9895 29 42Z" fill="#87AD3E"/>
<path d="M40.538 21.823C40.1618 21.3062 39.5613 21.0003 38.922 21H32.8L30.9 15.173C30.5552 14.1237 29.4249 13.5527 28.3755 13.8975C27.7719 14.0959 27.2984 14.5694 27.1 15.173L25.205 21H19.078C17.9734 20.9995 17.0775 21.8944 17.077 22.999C17.0767 23.639 17.3827 24.2404 17.9 24.617L22.856 28.217L20.963 34.044C20.6215 35.0945 21.1964 36.2229 22.2468 36.5643C22.8559 36.7623 23.5229 36.6565 24.041 36.28L29 32.681L33.957 36.281C34.6553 36.7998 35.6108 36.7998 36.309 36.281C37.0177 35.7774 37.3127 34.8689 37.035 34.045L35.142 28.217L40.098 24.617C40.9912 23.967 41.1882 22.716 40.538 21.823ZM33.378 27.027C33.0273 27.2819 32.8807 27.7338 33.015 28.146L35.133 34.664L29.588 30.636C29.2377 30.3816 28.7634 30.3816 28.413 30.636L22.868 34.664L24.985 28.146C25.1189 27.734 24.9724 27.2828 24.622 27.028L19.078 23H25.931C26.3643 23 26.7482 22.721 26.882 22.309L29 15.791L31.118 22.308C31.2519 22.72 31.6358 22.999 32.069 22.999L38.922 23L33.378 27.027Z" fill="#87AD3E"/>
</svg>
