<svg width="58" height="58" viewBox="0 0 58 58" fill="none" xmlns="http://www.w3.org/2000/svg">
<g clip-path="url(#clip0_1_1335)">
<path d="M47.8933 18.3304H43.6758V13.8371C43.6758 11.2622 42.707 8.80931 40.9479 6.93054C40.6208 6.58118 40.0726 6.56328 39.7234 6.89033C39.3742 7.21737 39.3562 7.76554 39.6832 8.11467C41.1406 9.67127 41.9433 11.7035 41.9433 13.8371V18.3304H24.3154C18.7425 18.3304 14.2086 22.8643 14.2086 28.4372V31.5364H12.8518C12.312 31.5364 11.8044 31.7466 11.4225 32.1284L6.82463 36.7262V32.101C6.82463 31.3924 6.44525 30.7265 5.83432 30.3633C3.3043 28.8591 1.73252 26.0998 1.73252 23.1623V13.8371C1.73252 9.2195 5.48916 5.46287 10.1067 5.46287H33.5691C34.6514 5.46287 35.7041 5.66598 36.698 6.06677C37.1417 6.24542 37.6465 6.03086 37.8254 5.58725C38.0043 5.14353 37.7896 4.63875 37.3459 4.45988C36.1452 3.97571 34.8744 3.73035 33.5691 3.73035H10.1067C4.53386 3.73035 0 8.2642 0 13.8371V23.1623C0 26.7077 1.89633 30.0376 4.94892 31.8525C5.03728 31.9051 5.09211 32.0002 5.09211 32.1011V37.1446C5.09211 37.7775 5.4699 38.3429 6.05466 38.5852C6.44491 38.7728 7.24173 38.7457 7.75399 38.2473L12.6475 33.3536C12.7021 33.299 12.7746 33.269 12.8518 33.269H14.2086V37.7623C14.2086 39.1264 14.476 40.4501 15.0032 41.6967C15.1895 42.1372 15.6978 42.343 16.1385 42.157C16.5792 41.9707 16.7852 41.4624 16.599 41.0217C16.1626 39.99 15.9413 38.8934 15.9413 37.7624V28.4373C15.9413 23.8196 19.6979 20.063 24.3155 20.063H47.8933C52.5108 20.063 56.2675 23.8196 56.2675 28.4373V37.7624C56.2675 40.7113 54.7596 43.388 52.2338 44.9225C51.6385 45.2842 51.2686 45.9443 51.2686 46.645V52.295L45.7022 46.7285C45.3204 46.3467 44.8128 46.1365 44.2729 46.1365H24.3154C22.2139 46.1365 20.2044 45.3549 18.6569 43.9357C18.3043 43.6125 17.7564 43.636 17.4329 43.9886C17.1094 44.3412 17.1331 44.8892 17.4858 45.2126C19.3536 46.9257 21.779 47.8691 24.3153 47.8691H44.2727C44.3487 47.8691 44.4231 47.8999 44.4768 47.9538L50.339 53.8159C50.7917 54.1638 51.2342 54.4328 52.0382 54.1539C52.623 53.9116 53.0008 53.3462 53.0008 52.7133V46.6449C53.0008 46.5453 53.0515 46.4526 53.1331 46.4031C56.1807 44.5517 58 41.3216 58 37.7623V28.4372C58 22.8643 53.4661 18.3304 47.8933 18.3304V18.3304Z" fill="#87AD3E"/>
<path d="M33.6593 38.9898C33.1513 38.2721 32.2259 37.7909 31.1705 37.7909C29.5702 37.7909 28.2683 38.8971 28.2683 40.2568C28.2683 41.6164 29.5703 42.7226 31.1705 42.7226C32.5747 42.7226 33.7489 41.8708 34.0157 40.7434C35.2935 40.2052 36.2994 39.1328 36.736 37.776C38.0011 37.488 38.9485 36.3547 38.9485 35.0035V31.8797C38.9485 30.5753 38.0656 29.474 36.8662 29.14C36.5839 27.4001 35.7288 25.8037 34.418 24.5971C32.9555 23.2508 31.0546 22.5093 29.0656 22.5093C25.1516 22.5093 21.8779 25.3286 21.2643 29.1401C20.0653 29.4743 19.1827 30.5755 19.1827 31.8796V35.0034C19.1827 36.5716 20.4586 37.8475 22.0269 37.8475C23.5951 37.8475 24.871 36.5716 24.871 35.0034V31.8796C24.871 30.6568 24.0952 29.6117 23.0099 29.2107C23.5716 26.3407 26.0804 24.2419 29.0656 24.2419C32.013 24.2419 34.5534 26.3774 35.119 29.2116C34.0349 29.6132 33.2602 30.6575 33.2602 31.8796V35.0034C33.2602 36.1593 33.9537 37.1557 34.9463 37.6001C34.6709 38.1919 34.2179 38.6753 33.6593 38.9898V38.9898ZM31.1705 40.9902C30.4812 40.9902 30.0009 40.6038 30.0009 40.2569C30.0009 39.91 30.4812 39.5235 31.1705 39.5235C31.8598 39.5235 32.3402 39.91 32.3402 40.2569C32.3402 40.6038 31.8597 40.9902 31.1705 40.9902ZM23.1385 35.0036C23.1385 35.6165 22.6398 36.1152 22.0269 36.1152C21.4139 36.1152 20.9153 35.6165 20.9153 35.0036V31.8799C20.9153 31.2669 21.4139 30.7682 22.0269 30.7682C22.6398 30.7682 23.1385 31.2669 23.1385 31.8799V35.0036ZM34.9927 31.8799C34.9927 31.2669 35.4914 30.7682 36.1043 30.7682C36.7173 30.7682 37.216 31.2669 37.216 31.8799V35.0036C37.216 35.6165 36.7173 36.1152 36.1043 36.1152C35.4914 36.1152 34.9927 35.6165 34.9927 35.0036V31.8799Z" fill="#87AD3E"/>
<path d="M41.1995 27.4189H48.0996C48.5779 27.4189 48.9658 27.0312 48.9658 26.5527C48.9658 26.0742 48.5779 25.6864 48.0996 25.6864H41.1995C40.7211 25.6864 40.3332 26.0742 40.3332 26.5527C40.3332 27.0312 40.7211 27.4189 41.1995 27.4189Z" fill="#87AD3E"/>
<path d="M41.1995 31.2969H46.52C46.9984 31.2969 47.3862 30.9092 47.3862 30.4307C47.3862 29.9522 46.9984 29.5644 46.52 29.5644H41.1995C40.7211 29.5644 40.3332 29.9522 40.3332 30.4307C40.3332 30.9092 40.7211 31.2969 41.1995 31.2969Z" fill="#87AD3E"/>
<path d="M8.52248 16.3526C9.23577 16.3526 9.81401 15.7744 9.81401 15.0611C9.81401 14.3478 9.23577 13.7696 8.52248 13.7696C7.8092 13.7696 7.23096 14.3478 7.23096 15.0611C7.23096 15.7744 7.8092 16.3526 8.52248 16.3526Z" fill="#87AD3E"/>
<path d="M12.4341 16.3526C13.1474 16.3526 13.7256 15.7744 13.7256 15.0611C13.7256 14.3478 13.1474 13.7696 12.4341 13.7696C11.7208 13.7696 11.1426 14.3478 11.1426 15.0611C11.1426 15.7744 11.7208 16.3526 12.4341 16.3526Z" fill="#87AD3E"/>
<path d="M16.3227 16.3526C17.036 16.3526 17.6142 15.7744 17.6142 15.0611C17.6142 14.3478 17.036 13.7696 16.3227 13.7696C15.6094 13.7696 15.0312 14.3478 15.0312 15.0611C15.0312 15.7744 15.6094 16.3526 16.3227 16.3526Z" fill="#87AD3E"/>
</g>
<defs>
<clipPath id="clip0_1_1335">
<rect width="58" height="58" fill="white"/>
</clipPath>
</defs>
</svg>
