<svg width="21" height="40" viewBox="0 0 21 40" fill="none" xmlns="http://www.w3.org/2000/svg">
<path d="M3.81506 39.8333C4.23835 39.8347 4.65658 39.7413 5.03902 39.5599C5.42146 39.3785 5.75839 39.1137 6.02506 38.785L19.7101 21.785C20.1268 21.278 20.3546 20.6421 20.3546 19.9858C20.3546 19.3295 20.1268 18.6936 19.7101 18.1866L5.5434 1.18663C5.06247 0.60802 4.37139 0.244151 3.62218 0.175075C2.87297 0.105999 2.12701 0.337375 1.5484 0.818301C0.969782 1.29923 0.605913 1.99031 0.536839 2.73952C0.467762 3.48872 0.699137 4.23469 1.18006 4.8133L13.8451 20L1.60506 35.1866C1.25859 35.6025 1.03851 36.109 0.970852 36.646C0.903193 37.1831 0.990789 37.7283 1.22328 38.2171C1.45577 38.7059 1.82343 39.1179 2.28274 39.4043C2.74205 39.6908 3.2738 39.8396 3.81506 39.8333Z" fill="white"/>
</svg>
