<svg width="91" height="91" viewBox="0 0 91 91" fill="none" xmlns="http://www.w3.org/2000/svg">
<circle cx="45.5" cy="45.5" r="45.5" fill="#EDEDED"/>
<g clip-path="url(#clip0_1_1304)">
<path d="M27.3314 30.0046H28.9971V31.6703H27.3314V30.0046Z" fill="black"/>
<path d="M30.6627 30.0046H32.3284V31.6703H30.6627V30.0046Z" fill="black"/>
<path d="M33.9941 30.0046H35.6598V31.6703H33.9941V30.0046Z" fill="black"/>
<path d="M74.9999 50.8257L70.9239 48.7875L73.0271 44.5818L68.9735 45.5944V41.9824L65.6422 43.6481V28.3389C65.6422 27.4203 64.8951 26.6732 63.9765 26.6732H25.6657C24.747 26.6732 24 27.4203 24 28.3389V68.3154H65.6422V58.0029L68.9735 59.6685V56.0566L73.0271 57.0696L70.9239 52.8635L74.9999 50.8257ZM63.9765 28.3389V33.336H25.6657V28.3389H63.9765ZM63.9765 66.6497H25.6657V35.0017H63.9765V44.4809L61.2815 45.8286H58.9794V44.1629H56.4809V41.9568C56.4809 40.8771 55.6021 39.9987 54.5228 39.9987C53.925 39.9987 53.3679 40.2659 52.9938 40.7331L50.2504 44.1629H46.0155C41.8085 44.1629 37.6996 45.3414 34.1324 47.5716C33.0031 48.2771 32.3284 49.493 32.3284 50.8257C32.3284 52.1579 33.0031 53.3742 34.1324 54.0794C37.6996 56.3099 41.8085 57.4884 46.0155 57.4884H50.2504L52.9938 60.9178C53.3679 61.3851 53.925 61.6526 54.5228 61.6526C55.6021 61.6526 56.4809 60.7738 56.4809 59.6946V57.4884H58.9794V55.8227H61.2815L63.9765 57.17V66.6497ZM62.3108 49.9928H62.3742C63.6349 49.9928 64.8593 50.319 65.9472 50.9404C64.8959 51.7732 63.6434 52.2856 62.3108 52.4381V49.9928ZM46.0155 55.8227C45.0541 55.8227 44.0989 55.7552 43.1554 55.6235V51.6585H41.4897V55.3181C39.2087 54.8081 37.0181 53.9204 35.0152 52.6679C34.3756 52.2673 33.9941 51.5792 33.9941 50.8257C33.9941 50.0717 34.3756 49.3841 35.0152 48.9831C37.0181 47.7306 39.2087 46.8428 41.4897 46.3333V49.9928H43.1554V46.0275C44.0989 45.8961 45.0541 45.8286 46.0155 45.8286H57.3137V47.7273L53.6749 48.94C52.8628 49.2116 52.3167 49.9692 52.3167 50.8257C52.3167 51.6817 52.8628 52.4397 53.6757 52.7118L57.3137 53.9236V55.8227H46.0155ZM54.8152 57.4884V59.6946C54.8152 59.9451 54.4504 60.0728 54.2947 59.8768L52.3842 57.4884H54.8152ZM54.8152 44.1629H52.3842L54.2947 41.7742C54.4504 41.5786 54.8152 41.7067 54.8152 41.9568V44.1629ZM57.3137 49.4821V52.1689L54.204 51.1319C54.0714 51.0872 53.9824 50.9648 53.9824 50.8257C53.9824 50.6866 54.0714 50.5642 54.2032 50.5191L57.3137 49.4821ZM58.9794 47.4943H60.6451V54.1571H58.9794V47.4943ZM67.3079 53.9228V56.9736L62.3108 54.4751V54.116C64.3673 53.9261 66.2749 53.0359 67.7552 51.5569L68.6145 50.6947L67.2977 49.818C65.8353 48.8424 64.133 48.3271 62.375 48.3271H62.3108V47.1759L67.3079 44.6774V47.7281L69.917 47.0754L68.6889 49.5321L71.2757 50.8257L68.6889 52.1189L69.917 54.5759L67.3079 53.9228Z" fill="black"/>
<path d="M27.3314 36.6674H43.9883V38.333H27.3314V36.6674Z" fill="black"/>
<path d="M36.4927 39.9988H43.9883V41.6645H36.4927V39.9988Z" fill="black"/>
<path d="M27.3314 39.9988H34.827V41.6645H27.3314V39.9988Z" fill="black"/>
<path d="M27.3314 43.3301H35.6599V44.9958H27.3314V43.3301Z" fill="black"/>
<path d="M27.3314 63.3184H43.9883V64.984H27.3314V63.3184Z" fill="black"/>
<path d="M36.4927 59.9869H43.9883V61.6526H36.4927V59.9869Z" fill="black"/>
<path d="M27.3314 59.9869H34.827V61.6526H27.3314V59.9869Z" fill="black"/>
<path d="M27.3314 56.6556H35.6599V58.3213H27.3314V56.6556Z" fill="black"/>
</g>
<defs>
<clipPath id="clip0_1_1304">
<rect width="51" height="51" fill="white" transform="translate(24 22)"/>
</clipPath>
</defs>
</svg>
