<svg width="91" height="91" viewBox="0 0 91 91" fill="none" xmlns="http://www.w3.org/2000/svg">
<circle cx="45.5" cy="45.5" r="45.5" fill="#EDEDED"/>
<g clip-path="url(#clip0_1_1268)">
<path d="M71.1483 48.7582C71.3912 48.301 71.2174 47.7334 70.7602 47.4904C65.5072 44.6989 59.0991 45.3684 54.547 49.1091L53.0323 47.5944L55.506 45.1206C55.8721 44.7545 55.8721 44.1609 55.506 43.7947C55.1398 43.4286 54.5464 43.4286 54.1801 43.7947L51.7064 46.2685L45.6707 40.2328C47.0435 38.3916 47.9073 36.229 48.1796 33.9262C48.4934 31.2716 47.994 28.6163 46.7351 26.2475C46.4922 25.7903 45.9244 25.6166 45.4673 25.8595C45.0101 26.1025 44.8365 26.6701 45.0794 27.1273C47.0986 30.927 46.7825 35.4388 44.3287 38.8908L40.3512 34.9133C39.7931 34.3552 38.9998 34.1237 38.229 34.2934C37.4582 34.4634 36.8359 35.0073 36.5642 35.7483L25.1436 66.9043C24.8317 67.7553 25.036 68.6821 25.677 69.323C26.1196 69.7656 26.6983 70 27.2944 70C27.5616 70 27.8323 69.9528 28.0956 69.8563L59.2514 58.4357C59.9925 58.1641 60.5364 57.5417 60.7064 56.771C60.8763 56.0001 60.6446 55.2068 60.0865 54.6487L55.8809 50.443C59.8421 47.2824 65.3528 46.7402 69.8805 49.1462C70.3376 49.3892 70.9052 49.2154 71.1483 48.7582ZM39.9321 63.5205L31.4795 55.0679L33.8216 48.6788L46.3212 61.1784L39.9321 63.5205ZM35.3508 65.1998L29.8002 59.6492L30.7682 57.0083L37.9916 64.2317L35.3508 65.1998ZM27.4502 68.0958C27.2281 68.1773 27.0746 68.0689 27.0027 67.9972C26.9309 67.9254 26.8226 67.7718 26.9041 67.5497L29.0888 61.5896L33.4103 65.9111L27.4502 68.0958ZM58.8754 56.3672C58.8566 56.4522 58.7967 56.6053 58.6062 56.6751L52.8428 58.7878L47.5106 53.4555C47.1445 53.0893 46.5509 53.0894 46.1848 53.4554C45.8187 53.8215 45.8186 54.4151 46.1847 54.7812L50.9024 59.499L48.2615 60.467L34.5328 46.7383L35.5009 44.0975L40.2187 48.8152C40.4017 48.9983 40.6417 49.0898 40.8816 49.0898C41.1215 49.0898 41.3615 48.9982 41.5445 48.8152C41.9106 48.4491 41.9106 47.8555 41.5444 47.4894L36.2122 42.1572L38.3248 36.3937C38.3947 36.2032 38.5478 36.1433 38.6329 36.1245C38.6588 36.1188 38.692 36.1139 38.7298 36.1139C38.816 36.1139 38.9258 36.1394 39.0255 36.2392L58.7607 55.9745C58.9042 56.118 58.8941 56.2821 58.8754 56.3672Z" fill="black"/>
<path d="M53.2746 29.4817C53.7924 29.4817 54.2121 29.0619 54.2121 28.5442C54.2121 27.759 54.8509 27.1203 55.6361 27.1203C57.455 27.1203 58.935 25.6404 58.935 23.8214C58.935 23.3036 58.5151 22.8839 57.9975 22.8839C57.4798 22.8839 57.06 23.3036 57.06 23.8214C57.06 24.6066 56.4211 25.2453 55.6361 25.2453C53.8171 25.2453 52.3371 26.7251 52.3371 28.5442C52.3371 29.0619 52.7569 29.4817 53.2746 29.4817Z" fill="black"/>
<path d="M61.5923 38.3308C63.4709 38.3308 64.9993 36.8024 64.9993 34.9238C64.9993 34.0791 65.6865 33.3918 66.5313 33.3918C67.049 33.3918 67.4688 32.9721 67.4688 32.4543C67.4688 31.9366 67.049 31.5168 66.5313 31.5168C64.6527 31.5168 63.1243 33.0453 63.1243 34.9238C63.1243 35.7685 62.437 36.4558 61.5923 36.4558C61.0746 36.4558 60.6548 36.8755 60.6548 37.3933C60.6548 37.9111 61.0746 38.3308 61.5923 38.3308Z" fill="black"/>
<path d="M67 40.1392C67 41.7934 68.3458 43.1392 70 43.1392C71.6542 43.1392 73 41.7934 73 40.1392C73 38.4849 71.6542 37.1392 70 37.1392C68.3458 37.1392 67 38.4849 67 40.1392ZM70 39.0142C70.6204 39.0142 71.125 39.5188 71.125 40.1392C71.125 40.7595 70.6204 41.2642 70 41.2642C69.3797 41.2642 68.875 40.7595 68.875 40.1392C68.875 39.5188 69.3797 39.0142 70 39.0142Z" fill="black"/>
<path d="M54.5414 37.9237C56.1957 37.9237 57.5414 36.5779 57.5414 34.9237C57.5414 33.2695 56.1957 31.9237 54.5414 31.9237C52.8872 31.9237 51.5414 33.2695 51.5414 34.9237C51.5414 36.5779 52.8873 37.9237 54.5414 37.9237ZM54.5414 33.7987C55.1618 33.7987 55.6664 34.3034 55.6664 34.9237C55.6664 35.5441 55.1618 36.0487 54.5414 36.0487C53.9211 36.0487 53.4164 35.5441 53.4164 34.9237C53.4164 34.3034 53.9211 33.7987 54.5414 33.7987Z" fill="black"/>
<path d="M37.0002 28C38.6544 28 40.0002 26.6542 40.0002 25C40.0002 23.3458 38.6544 22 37.0002 22C35.346 22 34.0002 23.3458 34.0002 25C34.0002 26.6542 35.346 28 37.0002 28ZM37.0002 23.875C37.6205 23.875 38.1252 24.3797 38.1252 25C38.1252 25.6203 37.6205 26.125 37.0002 26.125C36.3799 26.125 35.8752 25.6203 35.8752 25C35.8752 24.3797 36.3799 23.875 37.0002 23.875Z" fill="black"/>
<path d="M67.4222 54.9115C67.0562 54.5455 66.4628 54.5455 66.0963 54.9115C65.7302 55.2775 65.7302 55.8712 66.0963 56.2373L66.9802 57.1211C67.1633 57.3042 67.4032 57.3957 67.6431 57.3957C67.883 57.3957 68.1229 57.3041 68.306 57.1211C68.6721 56.755 68.6721 56.1614 68.306 55.7953L67.4222 54.9115Z" fill="black"/>
<path d="M71.8415 59.3308C71.4753 58.9648 70.8819 58.9648 70.5156 59.3308C70.1495 59.6969 70.1495 60.2906 70.5156 60.6568L71.3995 61.5406C71.5826 61.7237 71.8225 61.8152 72.0624 61.8152C72.3023 61.8152 72.5422 61.7237 72.7253 61.5406C73.0914 61.1745 73.0914 60.5809 72.7253 60.2147L71.8415 59.3308Z" fill="black"/>
<path d="M71.3995 54.9116L70.5156 55.7954C70.1495 56.1615 70.1495 56.7552 70.5156 57.1213C70.6987 57.3043 70.9386 57.3958 71.1785 57.3958C71.4184 57.3958 71.6584 57.3043 71.8414 57.1213L72.7253 56.2374C73.0914 55.8713 73.0914 55.2777 72.7253 54.9116C72.3592 54.5454 71.7656 54.5455 71.3995 54.9116Z" fill="black"/>
<path d="M66.9802 59.3308L66.0963 60.2147C65.7302 60.5808 65.7302 61.1744 66.0963 61.5406C66.2794 61.7237 66.5193 61.8152 66.7592 61.8152C66.9992 61.8152 67.239 61.7237 67.4221 61.5406L68.306 60.6568C68.6721 60.2907 68.6721 59.697 68.306 59.3308C67.9398 58.9648 67.3463 58.9648 66.9802 59.3308Z" fill="black"/>
<path d="M71.1786 24.7589C71.4185 24.7589 71.6585 24.6674 71.8415 24.4843L72.7254 23.6004C73.0915 23.2343 73.0915 22.6407 72.7254 22.2746C72.3592 21.9085 71.7656 21.9085 71.3995 22.2746L70.5156 23.1584C70.1495 23.5245 70.1495 24.1182 70.5156 24.4843C70.6988 24.6674 70.9386 24.7589 71.1786 24.7589Z" fill="black"/>
<path d="M66.7591 29.1783C66.9991 29.1783 67.239 29.0868 67.4221 28.9037L68.3059 28.0198C68.672 27.6537 68.672 27.0601 68.3059 26.6939C67.9397 26.3278 67.3463 26.3278 66.98 26.6939L66.0961 27.5778C65.7301 27.9438 65.7301 28.5375 66.0961 28.9037C66.2793 29.0868 66.5192 29.1783 66.7591 29.1783Z" fill="black"/>
<path d="M71.8415 26.6939C71.4753 26.3278 70.8819 26.3278 70.5156 26.6939C70.1495 27.06 70.1495 27.6536 70.5156 28.0198L71.3995 28.9037C71.5826 29.0868 71.8225 29.1783 72.0624 29.1783C72.3023 29.1783 72.5422 29.0868 72.7253 28.9037C73.0914 28.5376 73.0914 27.9439 72.7253 27.5778L71.8415 26.6939Z" fill="black"/>
<path d="M66.9801 24.4843C67.1632 24.6674 67.4031 24.7589 67.643 24.7589C67.8829 24.7589 68.1228 24.6674 68.3059 24.4843C68.672 24.1182 68.672 23.5245 68.3059 23.1584L67.4221 22.2746C67.0561 21.9085 66.4626 21.9085 66.0961 22.2746C65.7301 22.6407 65.7301 23.2343 66.0961 23.6004L66.9801 24.4843Z" fill="black"/>
<path d="M43.8644 50.198C43.6178 50.198 43.3759 50.2983 43.2016 50.4727C43.0272 50.6471 42.9269 50.8889 42.9269 51.1355C42.9269 51.3821 43.0272 51.6239 43.2016 51.7983C43.3759 51.9727 43.6178 52.073 43.8644 52.073C44.1109 52.073 44.3528 51.9727 44.5272 51.7983C44.7016 51.6239 44.8019 51.3821 44.8019 51.1355C44.8019 50.8889 44.7016 50.6471 44.5272 50.4727C44.3528 50.2983 44.1109 50.198 43.8644 50.198Z" fill="black"/>
<path d="M57.5422 40.4328L56.8625 41.1125C56.4964 41.4786 56.4964 42.0722 56.8625 42.4384C57.0456 42.6215 57.2855 42.713 57.5254 42.713C57.7653 42.713 58.0052 42.6215 58.1883 42.4384L58.868 41.7587C59.2341 41.3926 59.2341 40.799 58.868 40.4328C58.5018 40.0667 57.9084 40.0667 57.5422 40.4328Z" fill="black"/>
</g>
<defs>
<clipPath id="clip0_1_1268">
<rect width="48" height="48" fill="white" transform="translate(25 22)"/>
</clipPath>
</defs>
</svg>
