<svg width="91" height="91" viewBox="0 0 91 91" fill="none" xmlns="http://www.w3.org/2000/svg">
<circle cx="45.5" cy="45.5" r="45.5" fill="#EDEDED"/>
<g clip-path="url(#clip0_1_1247)">
<path d="M65.0658 46.9986C65.0718 44.4097 64.5422 41.8475 63.5104 39.4731C66.1204 35.4809 69.7929 28.7503 67.0143 25.9835C64.7644 23.7314 59.901 25.7349 56.0143 27.9576C55.3499 27.3505 54.4413 27.0864 53.555 27.2428C52.6687 27.3992 51.9053 27.9583 51.4889 28.7562C47.2005 27.446 42.5856 27.7059 38.4715 29.4895C34.48 26.8781 27.7494 23.2071 24.984 25.9835C22.7327 28.2348 24.7354 33.1012 26.9582 36.9835C26.351 37.6478 26.0869 38.5565 26.2433 39.4428C26.3997 40.3291 26.9589 41.0924 27.7568 41.5089C26.6577 45.0877 26.6577 48.9139 27.7568 52.4927C26.9597 52.9093 26.4011 53.6722 26.2447 54.5579C26.0884 55.4435 26.3519 56.3516 26.9582 57.0159C24.7325 60.896 22.7327 65.7624 24.9833 68.013C25.7249 68.7033 26.7159 69.0611 27.7274 69.0037C30.9739 69.0037 35.4883 66.4605 38.4744 64.5106C42.5884 66.2938 47.2029 66.5537 51.4911 65.2439C51.9079 66.0421 52.6718 66.6013 53.5586 66.7575C54.4454 66.9136 55.3544 66.6489 56.0187 66.0411C58.6954 67.5752 61.8362 69.0052 64.2709 69.0052C65.2813 69.0622 66.2715 68.7055 67.0136 68.0174C69.7929 65.2498 66.1204 58.52 63.5104 54.5241C64.5424 52.1497 65.072 49.5875 65.0658 46.9986ZM62.5204 53.0567C61.958 52.25 61.3471 51.4111 60.693 50.5545C62.6135 48.5723 62.6135 45.4234 60.693 43.4412C61.3449 42.5847 61.958 41.7472 62.5204 40.9391C63.9587 44.8497 63.9587 49.1445 62.5204 53.0552V53.0567ZM38.341 62.8335C35.552 61.4874 33.1693 59.4268 31.4352 56.8612C32.1268 55.9894 32.2614 54.7997 31.782 53.7954C31.3026 52.7911 30.293 52.1476 29.1802 52.1371C28.1388 48.7906 28.1388 45.2066 29.1802 41.8601C30.293 41.8496 31.3026 41.2061 31.782 40.2018C32.2614 39.1975 32.1268 38.0078 31.4352 37.136C33.1691 34.5704 35.5519 32.51 38.341 31.1645C40.841 32.8636 43.2392 34.7079 45.5232 36.6879C47.3756 38.2705 49.2581 40.0165 51.12 41.8777C51.813 42.5707 52.4283 43.2036 52.9915 43.7991C51.4906 45.6681 51.4906 48.3291 52.9915 50.1981C52.4283 50.7936 51.813 51.4265 51.12 52.1195C49.2581 53.9807 47.3756 55.7267 45.521 57.3115C43.2376 59.2908 40.8401 61.1346 38.341 62.8335ZM53.3325 46.9986C53.3325 44.9736 54.9741 43.3319 56.9992 43.3319C59.0242 43.3319 60.6658 44.9736 60.6658 46.9986C60.6658 49.0236 59.0242 50.6653 56.9992 50.6653C54.9751 50.6628 53.3349 49.0226 53.3325 46.9986ZM65.9781 27.0211C67.3626 28.4013 66.1013 32.6194 62.7646 37.9236C61.3232 35.2617 59.2665 32.9828 56.766 31.2767C57.0538 30.613 57.0761 29.8641 56.8283 29.1845C61.2899 26.6479 64.7725 25.8141 65.9781 27.0211ZM54.0658 28.6653C54.8758 28.6653 55.5325 29.3219 55.5325 30.1319C55.5325 30.9419 54.8758 31.5986 54.0658 31.5986C53.2558 31.5986 52.5992 30.9419 52.5992 30.1319C52.5992 29.3219 53.2558 28.6653 54.0658 28.6653ZM51.1376 30.1796C51.1481 31.2924 51.7916 32.302 52.796 32.7814C53.8003 33.2608 54.9899 33.1262 55.8618 32.4346C58.43 34.1688 60.4926 36.553 61.8392 39.3441C61.1528 40.3619 60.382 41.4333 59.5394 42.5414C57.8205 41.5555 55.6862 41.6544 54.0658 42.7951C53.4916 42.1887 52.8654 41.5448 52.1592 40.8408C50.2708 38.9525 48.359 37.18 46.4795 35.5747C44.3867 33.7651 42.2018 32.0647 39.9338 30.4803C43.5342 29.1493 47.4732 29.0436 51.1398 30.1796H51.1376ZM26.0217 27.0197C27.4011 25.6351 31.6192 26.8979 36.9242 30.2331C34.2624 31.6745 31.9837 33.7312 30.278 36.2318C29.9157 36.0778 29.5261 35.9985 29.1325 35.9986C28.8093 36.0021 28.4891 36.0599 28.185 36.1695C25.6484 31.7064 24.8139 28.2253 26.0217 27.0197ZM29.1325 37.4653C29.9425 37.4653 30.5992 38.1219 30.5992 38.9319C30.5992 39.7419 29.9425 40.3986 29.1325 40.3986C28.3225 40.3986 27.6658 39.7419 27.6658 38.9319C27.6658 38.1219 28.3225 37.4653 29.1325 37.4653ZM29.1325 53.5986C29.9425 53.5986 30.5992 54.2552 30.5992 55.0653C30.5992 55.8753 29.9425 56.5319 29.1325 56.5319C28.3225 56.5319 27.6658 55.8753 27.6658 55.0653C27.6658 54.2552 28.3225 53.5986 29.1325 53.5986ZM26.021 66.9768C24.8139 65.7697 25.6484 62.2908 28.185 57.8277C28.4891 57.9373 28.8093 57.9951 29.1325 57.9986C29.5261 57.9987 29.9157 57.9194 30.278 57.7654C31.9833 60.2661 34.2618 62.3228 36.9234 63.7641C31.6185 67.0993 27.4004 68.3613 26.021 66.9768ZM39.9323 63.5169C42.199 61.9327 44.3828 60.233 46.4751 58.4247C48.3568 56.8172 50.2686 55.0447 52.157 53.1564C52.8617 52.4517 53.488 51.8085 54.0636 51.2021C55.684 52.3428 57.8183 52.4417 59.5372 51.4558C60.3798 52.5639 61.1506 53.6353 61.837 54.6531C60.4916 57.4439 58.4303 59.8281 55.8632 61.5626C54.9914 60.871 53.8017 60.7364 52.7974 61.2158C51.7931 61.6952 51.1496 62.7048 51.1391 63.8176C47.4727 64.9535 43.534 64.8479 39.9338 63.5169H39.9323ZM54.0658 65.3319C53.2558 65.3319 52.5992 64.6753 52.5992 63.8653C52.5992 63.0553 53.2558 62.3986 54.0658 62.3986C54.8758 62.3986 55.5325 63.0553 55.5325 63.8653C55.5325 64.6753 54.8758 65.3319 54.0658 65.3319ZM65.9774 66.9768C64.771 68.1839 61.2921 67.3508 56.8283 64.8127C57.0761 64.1331 57.0538 63.3842 56.766 62.7205C59.2666 61.0146 61.3233 58.7356 62.7646 56.0736C66.1013 61.3778 67.3626 65.5967 65.9774 66.9768Z" fill="black"/>
</g>
<defs>
<clipPath id="clip0_1_1247">
<rect width="44" height="44" fill="white" transform="translate(24 25)"/>
</clipPath>
</defs>
</svg>
