<svg width="91" height="91" viewBox="0 0 91 91" fill="none" xmlns="http://www.w3.org/2000/svg">
<circle cx="45.5" cy="45.5" r="45.5" fill="#EDEDED"/>
<g clip-path="url(#clip0_1_1291)">
<path d="M40.5098 51.8335H43.8583V57.8181C43.8583 58.2146 44.1238 58.562 44.5066 58.6661C44.5832 58.6869 44.6606 58.697 44.7373 58.697C45.0431 58.697 45.3344 58.5366 45.4951 58.2631L51.248 48.4671C51.4076 48.1953 51.4095 47.859 51.253 47.5854C51.0964 47.3119 50.8053 47.1431 50.4902 47.1431H47.1418V41.1586C47.1418 40.7621 46.8763 40.4146 46.4935 40.3106C46.1108 40.2064 45.7059 40.3715 45.505 40.7136L39.7519 50.5095C39.5924 50.7813 39.5905 51.1176 39.747 51.3912C39.9036 51.6647 40.1947 51.8335 40.5098 51.8335ZM45.384 44.3907V48.022C45.384 48.5074 45.7775 48.9009 46.2629 48.9009H48.9548L45.6161 54.586V50.9546C45.6161 50.4692 45.2225 50.0757 44.7372 50.0757H42.0453L45.384 44.3907Z" fill="black"/>
<path d="M55.9313 50.3675H56.8622V51.2985C56.8622 51.7839 57.2558 52.1774 57.7411 52.1774C58.2265 52.1774 58.62 51.7839 58.62 51.2985V50.3675H59.5511C60.0364 50.3675 60.43 49.9741 60.43 49.4886C60.43 49.0032 60.0364 48.6097 59.5511 48.6097H58.62V47.6787C58.62 47.1933 58.2265 46.7998 57.7411 46.7998C57.2558 46.7998 56.8622 47.1933 56.8622 47.6787V48.6097H55.9313C55.446 48.6097 55.0524 49.0032 55.0524 49.4886C55.0524 49.9741 55.4459 50.3675 55.9313 50.3675Z" fill="black"/>
<path d="M31.449 50.3673H35.0687C35.5542 50.3673 35.9477 49.9738 35.9477 49.4884C35.9477 49.003 35.5542 48.6095 35.0687 48.6095H31.449C30.9636 48.6095 30.5701 49.003 30.5701 49.4884C30.5701 49.9738 30.9636 50.3673 31.449 50.3673Z" fill="black"/>
<path d="M67.1211 38.4449C67.6064 38.4449 68 38.0515 68 37.566V32.9713C68 32.4859 67.6064 32.0924 67.1211 32.0924H62.9982V28.9945C62.9982 28.5091 62.6047 28.1156 62.1193 28.1156H53.3629C52.8775 28.1156 52.484 28.5091 52.484 28.9945V32.0924H49.4732C48.9879 32.0924 48.5943 32.4859 48.5943 32.9713C48.5943 33.4567 48.9879 33.8502 49.4732 33.8502H66.2422V36.6871H24.7578V33.8502H41.5268C42.0122 33.8502 42.4057 33.4567 42.4057 32.9713C42.4057 32.4859 42.0122 32.0924 41.5268 32.0924H38.516V28.9945C38.516 28.5091 38.1225 28.1156 37.6371 28.1156H28.8807C28.3953 28.1156 28.0018 28.5091 28.0018 28.9945V32.0924H23.8789C23.3935 32.0924 23 32.4859 23 32.9713V37.566C23 38.0515 23.3935 38.4449 23.8789 38.4449H25.6141V60.5317H23.8789C23.3935 60.5317 23 60.9252 23 61.4106V66.0054C23 66.4908 23.3935 66.8843 23.8789 66.8843H67.1211C67.6064 66.8843 68 66.4908 68 66.0054V61.4106C68 60.9252 67.6064 60.5317 67.1211 60.5317H65.3859V38.4449H67.1211ZM54.2418 32.0924V29.8734H61.2404V32.0924H54.2418ZM29.7596 29.8734H36.7582V32.0924H29.7596V29.8734ZM66.2422 65.1265H24.7578V62.2895H66.2422V65.1265ZM63.6281 60.5317H27.3719V38.4449H63.6281V60.5317Z" fill="black"/>
<path d="M44.7046 33.3074C44.8434 33.6406 45.1822 33.8626 45.5444 33.85C45.9061 33.8374 46.2315 33.5965 46.348 33.2539C46.4661 32.907 46.3502 32.5099 46.062 32.283C45.7731 32.0556 45.3652 32.0311 45.052 32.2249C44.6915 32.4482 44.5414 32.9158 44.7046 33.3074Z" fill="black"/>
</g>
<defs>
<clipPath id="clip0_1_1291">
<rect width="45" height="45" fill="white" transform="translate(23 25)"/>
</clipPath>
</defs>
</svg>
