<svg width="61" height="61" viewBox="0 0 61 61" fill="none" xmlns="http://www.w3.org/2000/svg">
<path d="M51.3666 20.8666C51.3666 9.34229 42.0243 0 30.5 0C18.9757 0 9.63343 9.34229 9.63343 20.8666C6.65415 21.2376 3.83716 23.1851 3.83716 27.7062V38.6032C3.83716 43.7039 7.40766 45.5587 10.7927 45.5587H14.1545C14.7947 45.5587 15.3138 45.0397 15.3138 44.3995V21.9563C15.3138 21.3161 14.7947 20.797 14.1545 20.797H11.9519C11.9519 10.5533 20.2563 2.24895 30.5 2.24895C40.7438 2.24895 49.0481 10.5533 49.0481 20.797H46.8455C46.2053 20.797 45.6863 21.3161 45.6863 21.9563V44.3647C45.6863 45.0049 46.2053 45.5239 46.8455 45.5239H49.0481C48.7235 53.488 44.898 55.3544 37.2585 55.6906V54.9139C37.2585 53.6334 36.2205 52.5954 34.94 52.5954H27.6483C26.3677 52.5954 25.3297 53.6334 25.3297 54.9139V58.6815C25.3297 59.962 26.3677 61 27.6483 61H34.9631C36.2437 61 37.2817 59.962 37.2817 58.6815V58.0091C44.6313 57.6729 50.9841 56.1543 51.3666 45.4544C54.3459 45.0834 57.1629 43.1359 57.1629 38.6148V27.7178C57.1629 23.1735 54.3575 21.2376 51.3666 20.8666ZM12.9953 23.0344V43.2054H10.7347C9.01903 43.2054 6.09771 42.6026 6.09771 38.5684V27.6714C6.09771 23.672 8.98425 23.0344 10.7347 23.0344H12.9953V23.0344ZM34.9631 56.931V58.6931H27.6483V54.9255H34.9631V56.931ZM54.8444 38.6032C54.8444 42.6026 51.9578 43.2402 50.2073 43.2402H48.0048V23.1155H50.2653C51.981 23.1155 54.9023 23.7184 54.9023 27.7526L54.8444 38.6032Z" fill="#FFC741"/>
</svg>
