<svg width="61" height="61" viewBox="0 0 61 61" fill="none" xmlns="http://www.w3.org/2000/svg">
<g clip-path="url(#clip0_1_1396)">
<path d="M10.7287 47.1736C9.87471 47.1736 9.05376 47.3868 8.32542 47.787C4.48872 42.8688 2.38281 36.7591 2.38281 30.5C2.38281 14.9959 14.9959 2.38281 30.5 2.38281C32.3848 2.38281 34.2688 2.57037 36.0996 2.94035C36.7437 3.07066 37.3729 2.65367 37.5032 2.00864C37.6335 1.3636 37.2166 0.735321 36.5715 0.604546C34.5857 0.203377 32.5431 0 30.5 0C22.3533 0 14.6939 3.17258 8.93322 8.93322C3.17258 14.6939 0 22.3533 0 30.5C0 37.3529 2.32697 44.0406 6.56344 49.4019C6.018 50.2168 5.7248 51.1746 5.7248 52.1775C5.7248 53.5142 6.24558 54.7707 7.19079 55.7155C8.13554 56.6607 9.3921 57.1814 10.7287 57.1814C12.0653 57.1814 13.3219 56.6607 14.2671 55.7155C15.2123 54.7707 15.7326 53.5137 15.7326 52.1771C15.7326 50.8409 15.2123 49.5839 14.2671 48.6392C13.3219 47.6939 12.0653 47.1736 10.7287 47.1736V47.1736ZM12.5819 54.0307C12.0872 54.5259 11.4287 54.7986 10.7287 54.7986C10.0288 54.7986 9.37069 54.5259 8.87551 54.0307C8.38033 53.5356 8.10761 52.8775 8.10761 52.1775C8.10761 51.4771 8.38033 50.8191 8.87551 50.3239C9.37022 49.8287 10.0288 49.5564 10.7287 49.5564C11.4287 49.5564 12.0867 49.8292 12.5819 50.3239C13.0771 50.8191 13.3498 51.4771 13.3498 52.1775C13.3498 52.8775 13.0771 53.5356 12.5819 54.0307V54.0307Z" fill="#FFC741"/>
<path d="M54.4357 11.5967C55.7309 9.6537 55.5228 6.99724 53.8097 5.28413C52.8645 4.33938 51.6079 3.8186 50.2713 3.8186C48.9347 3.8186 47.6782 4.33938 46.733 5.28413C45.7877 6.22934 45.2674 7.4859 45.2674 8.82251C45.2674 10.1591 45.7877 11.4157 46.733 12.3609C47.6782 13.3061 48.9347 13.8264 50.2713 13.8264C51.1253 13.8264 51.9463 13.6133 52.6746 13.213C56.5113 18.1318 58.6172 24.241 58.6172 30.5001C58.6172 46.0042 46.0041 58.6172 30.5 58.6172C28.6338 58.6172 26.7676 58.4334 24.954 58.0704C24.3089 57.9415 23.6811 58.3599 23.5517 59.0049C23.4228 59.6504 23.8412 60.2778 24.4862 60.4071C26.4534 60.8004 28.477 61 30.5 61C38.6467 61 46.3062 57.8275 52.0668 52.0668C57.8275 46.3062 61 38.6468 61 30.5001C61 23.6467 58.6726 16.9585 54.4357 11.5967V11.5967ZM48.4181 10.6762C47.923 10.181 47.6502 9.52293 47.6502 8.82251C47.6502 8.12256 47.923 7.46449 48.4181 6.96931C48.9129 6.47414 49.5714 6.20142 50.2713 6.20142C50.9713 6.20142 51.6298 6.47414 52.125 6.96931C53.1465 7.99132 53.1465 9.65417 52.125 10.6762C51.6298 11.1709 50.9713 11.4436 50.2713 11.4436C49.5709 11.4436 48.9129 11.1709 48.4181 10.6762Z" fill="#FFC741"/>
<path d="M25.5836 50.9922C25.5836 51.6503 26.1174 52.1836 26.775 52.1836H34.2246C34.8826 52.1836 35.416 51.6503 35.416 50.9922V48.6824C36.9825 48.2608 38.4801 47.64 39.8875 46.8292L41.5182 48.46C41.7416 48.6834 42.0446 48.809 42.361 48.809C42.6766 48.809 42.98 48.6834 43.2034 48.4595L48.4689 43.1903C48.9338 42.7249 48.9338 41.9705 48.4689 41.5056L46.84 39.8767C47.6507 38.4694 48.2715 36.9718 48.6932 35.4052H50.9941C51.6521 35.4052 52.1855 34.8719 52.1855 34.2138V26.7643C52.1855 26.1062 51.6521 25.5729 50.9941 25.5729H48.6927C48.2711 24.0068 47.6507 22.5092 46.84 21.1019L48.46 19.4818C48.6834 19.2584 48.8091 18.955 48.8091 18.639C48.8086 18.323 48.6829 18.0196 48.4595 17.7962L43.1899 12.5307C42.725 12.0658 41.9706 12.0658 41.5052 12.5312L39.8875 14.1493C38.4801 13.3386 36.9825 12.7178 35.416 12.2962V10.0078C35.416 9.34975 34.8826 8.81641 34.2246 8.81641H26.775C26.1174 8.81641 25.5836 9.34975 25.5836 10.0078V12.2966C24.0176 12.7178 22.5199 13.3386 21.1126 14.1493L19.4944 12.5312C19.0295 12.0662 18.2751 12.0658 17.8097 12.5307L12.5405 17.7966C12.3167 18.02 12.191 18.323 12.191 18.639C12.191 18.955 12.3167 19.2584 12.54 19.4818L14.1601 21.1019C13.3494 22.5092 12.7285 24.0064 12.3069 25.5729H10.0102C9.35211 25.5729 8.81877 26.1062 8.81877 26.7638L8.81458 34.2134C8.81411 34.5294 8.93977 34.8328 9.16316 35.0562C9.38654 35.2796 9.68952 35.4052 10.006 35.4052H12.3069C12.7285 36.9718 13.3494 38.4694 14.1601 39.8767L12.5312 41.5056C12.0663 41.9705 12.0658 42.7249 12.5312 43.1903L17.7967 48.4595C18.0201 48.6829 18.323 48.809 18.639 48.809H18.6395C18.9555 48.809 19.2585 48.6834 19.4819 48.46L21.1121 46.8292C22.5199 47.64 24.0176 48.2608 25.5836 48.6824V50.9922ZM21.5794 44.3236C21.1079 44.0187 20.4876 44.0848 20.0901 44.4818L18.6395 45.9324L15.0583 42.3484L16.5075 40.8987C16.9045 40.5018 16.9706 39.8814 16.6658 39.41C15.5856 37.7383 14.8261 35.906 14.4091 33.9635C14.2909 33.4148 13.8059 33.0224 13.2442 33.0224H11.1979L11.2006 27.9557H13.2442C13.8059 27.9557 14.2909 27.5638 14.4091 27.0147C14.8261 25.0726 15.5856 23.2403 16.6658 21.5686C16.9706 21.0972 16.9045 20.4768 16.5075 20.0798L15.0676 18.6395L18.6516 15.0583L20.0901 16.4973C20.4876 16.8942 21.1075 16.9599 21.5794 16.6555C23.2506 15.5753 25.0829 14.8158 27.0254 14.3988C27.5741 14.2806 27.9664 13.7952 27.9664 13.2339V11.1992H33.0332V13.2335C33.0332 13.7952 33.425 14.2806 33.9742 14.3983C35.9163 14.8158 37.749 15.5748 39.4202 16.655C39.8917 16.9599 40.512 16.8942 40.909 16.4968L42.348 15.0583L45.932 18.6395L44.4921 20.0794C44.0946 20.4768 44.029 21.0972 44.3338 21.5686C45.414 23.2403 46.1731 25.0726 46.5905 27.0147C46.7083 27.5638 47.1937 27.9557 47.7554 27.9557H49.8027V33.0224H47.7554C47.1937 33.0224 46.7087 33.4148 46.5905 33.9635C46.1735 35.9055 45.414 37.7383 44.3338 39.4095C44.029 39.8814 44.0951 40.5018 44.4921 40.8987L45.9413 42.348L42.3601 45.932L40.9095 44.4818C40.512 44.0844 39.8917 44.0187 39.4202 44.3236C37.7485 45.4037 35.9163 46.1628 33.9742 46.5803C33.425 46.6985 33.0332 47.1834 33.0332 47.7451V49.8008H27.9664V47.7451C27.9664 47.1839 27.5741 46.6985 27.0254 46.5803C25.0833 46.1633 23.2511 45.4037 21.5794 44.3236V44.3236Z" fill="#FFC741"/>
<path d="M40.3445 30.5001C40.3445 25.0717 35.9283 20.6556 30.5 20.6556C25.0716 20.6556 20.6555 25.0717 20.6555 30.5001C20.6555 35.9284 25.0716 40.3445 30.5 40.3445C35.9283 40.3445 40.3445 35.9284 40.3445 30.5001ZM23.0383 30.5001C23.0383 26.3855 26.3855 23.0384 30.5 23.0384C34.6145 23.0384 37.9616 26.386 37.9616 30.5001C37.9616 34.6141 34.6145 37.9617 30.5 37.9617C26.3855 37.9617 23.0383 34.6146 23.0383 30.5001Z" fill="#FFC741"/>
<path d="M41.4703 4.506C41.784 4.506 42.0911 4.37849 42.3126 4.15696C42.5342 3.93404 42.6617 3.62688 42.6617 3.3132C42.6617 3.00139 42.5346 2.69376 42.3126 2.47084C42.0911 2.24931 41.784 2.1218 41.4703 2.1218C41.1557 2.1218 40.8499 2.24931 40.6284 2.47084C40.4064 2.69376 40.2789 2.99999 40.2789 3.3132C40.2789 3.62781 40.4064 3.93404 40.6284 4.15696C40.8499 4.37849 41.1557 4.506 41.4703 4.506Z" fill="#FFC741"/>
<path d="M19.5818 56.5154C19.2686 56.5154 18.961 56.643 18.7395 56.8645C18.518 57.086 18.3904 57.3936 18.3904 57.7068C18.3904 58.0215 18.518 58.3277 18.7395 58.5492C18.961 58.7707 19.2686 58.8983 19.5818 58.8983C19.8951 58.8983 20.2027 58.7707 20.4242 58.5492C20.6457 58.3277 20.7733 58.0201 20.7733 57.7068C20.7733 57.3936 20.6457 57.086 20.4242 56.8645C20.2027 56.643 19.8951 56.5154 19.5818 56.5154Z" fill="#FFC741"/>
</g>
<defs>
<clipPath id="clip0_1_1396">
<rect width="61" height="61" fill="white"/>
</clipPath>
</defs>
</svg>
