<svg width="62" height="62" viewBox="0 0 62 62" fill="none" xmlns="http://www.w3.org/2000/svg">
<path d="M61.3703 24.7489C60.9622 22.7592 60.3543 20.8011 59.5636 18.9301C58.7862 17.093 57.8247 15.3214 56.7058 13.6645C55.5966 12.0225 54.3227 10.4784 52.9204 9.07606C51.5169 7.67258 49.9742 6.39965 48.3322 5.29055C46.6756 4.17043 44.904 3.20883 43.067 2.43249C41.1961 1.64054 39.238 1.03265 37.2472 0.625653C33.1627 -0.209894 28.8373 -0.209894 24.7528 0.625653C22.762 1.03265 20.8039 1.64042 18.933 2.43249C17.0972 3.2087 15.3256 4.17031 13.6679 5.29055C12.0258 6.39977 10.4831 7.67258 9.07961 9.07606C7.67735 10.4784 6.40344 12.0225 5.29422 13.6645C4.17531 15.3212 3.21383 17.093 2.43641 18.9301C1.64566 20.8011 1.03777 22.7593 0.629688 24.7489C0.211914 26.7918 0 28.894 0 30.9975C0 33.1011 0.211914 35.2022 0.629688 37.2451C1.03777 39.2359 1.64566 41.1929 2.43641 43.0639C3.21383 44.901 4.17531 46.6726 5.29422 48.3304C6.40344 49.9714 7.67735 51.5154 9.07961 52.9178C10.4831 54.3213 12.0258 55.5952 13.6679 56.7033C15.3256 57.8234 17.0972 58.7849 18.933 59.5625C20.8039 60.3533 22.762 60.9612 24.7528 61.3681C26.7944 61.7871 28.8966 61.999 31 61.999C33.0695 61.999 35.139 61.7933 37.1504 61.3887C39.1133 60.9927 41.0447 60.403 42.8914 59.6353C43.5078 59.3785 43.8008 58.6688 43.5453 58.0524C43.3564 57.5983 42.9168 57.3053 42.4264 57.3053C42.2666 57.3053 42.1104 57.3368 41.9614 57.3986C38.486 58.8433 34.7987 59.5759 31 59.5771C23.3687 59.5759 16.1914 56.6029 10.7919 51.2056C9.69174 50.1051 8.69417 48.9296 7.80025 47.6925C8.20483 47.8212 8.63544 47.8911 9.08215 47.8911H11.8875C12.2078 47.8911 12.5161 47.762 12.7438 47.5344L47.7004 12.5845C47.9419 12.343 48.0701 12.0108 48.0536 11.6696C48.0372 11.3285 47.8773 11.0103 47.6137 10.7932C42.9504 6.95438 37.0502 4.84008 31 4.84008C23.2626 4.84008 16.0197 8.20988 11.0333 14.1042H9.08203C8.63495 14.1042 8.2041 14.1744 7.79929 14.3032C8.69344 13.0656 9.69138 11.8896 10.7919 10.7884C16.1914 5.39106 23.3675 2.41796 31 2.41796C38.6325 2.41796 45.8086 5.39106 51.2081 10.7884C52.3086 11.8896 53.3066 13.0656 54.2008 14.3032C53.7959 14.1742 53.3651 14.1042 52.918 14.1042C52.918 14.1042 50.481 14.1054 50.148 14.1054C49.8067 14.1054 49.4743 14.2172 49.2327 14.4589L14.2998 49.4107C14.0584 49.6522 13.93 49.9844 13.9466 50.3256C13.9631 50.6667 14.1229 50.9849 14.3865 51.202C19.0497 55.0411 24.9499 57.1554 31 57.1554C38.7374 57.1554 45.9803 53.7856 50.9667 47.8912H52.918C53.3672 47.8912 53.8001 47.8204 54.2068 47.6902C53.1688 49.1246 51.99 50.4761 50.674 51.7263C50.4391 51.9492 50.3059 52.2495 50.2974 52.5728C50.2889 52.8961 50.4076 53.2037 50.6292 53.4376C50.8605 53.681 51.1729 53.8152 51.5083 53.8152C51.8195 53.8152 52.1162 53.6966 52.3414 53.4822C53.8285 52.0715 55.1799 50.5068 56.3593 48.8321C57.5497 47.1427 58.5729 45.3288 59.4012 43.4407C60.244 41.5188 60.8919 39.5026 61.3278 37.4499C61.7734 35.3415 61.9999 33.1702 61.9999 30.9977C62 28.894 61.7881 26.7918 61.3703 24.7489V24.7489ZM31 7.26208C36.0425 7.26208 40.9694 8.88001 45.0172 11.8423L42.7554 14.1042H14.3271C18.751 9.72754 24.695 7.26208 31 7.26208ZM40.3334 16.5262L25.1357 31.7242H22.4023C21.7335 31.7242 21.1914 32.2665 21.1914 32.9352C21.1914 33.6038 21.7335 34.1462 22.4023 34.1462H22.7137L11.391 45.4691H9.08203C8.08047 45.4691 7.26563 44.6543 7.26563 43.6526V18.3428C7.26563 17.3411 8.08047 16.5262 9.08203 16.5262H40.3334ZM4.84375 42.5464C3.25706 38.9555 2.42248 35.0403 2.42188 30.9975C2.42248 26.9542 3.25706 23.0391 4.84375 19.4482V42.5464ZM31 54.7333C25.9577 54.7333 21.0307 53.1153 16.9828 50.1529L19.2445 47.8911H47.6729C43.249 52.2678 37.305 54.7333 31 54.7333ZM52.918 45.4691H21.6663L33.0908 34.044C33.2396 34.1094 33.4038 34.1462 33.5768 34.1462H39.6314C40.3002 34.1462 40.8424 33.604 40.8424 32.9352C40.8424 32.2664 40.3002 31.7242 39.6314 31.7242H35.4105L50.6077 16.5262H52.918C53.9195 16.5262 54.7344 17.3411 54.7344 18.3428V43.6526C54.7344 44.6543 53.9195 45.4691 52.918 45.4691ZM57.1563 42.5598V19.4473C58.7434 23.0384 59.5781 26.9539 59.5781 30.9975C59.5781 35.0582 58.7431 38.9727 57.1563 42.5598Z" fill="#FFC741"/>
<path d="M47.2388 57.1893C47.9076 57.1893 48.4498 56.6472 48.4498 55.9784C48.4498 55.3096 47.9076 54.7675 47.2388 54.7675C46.57 54.7675 46.0279 55.3096 46.0279 55.9784C46.0279 56.6472 46.57 57.1893 47.2388 57.1893Z" fill="#FFC741"/>
<path d="M10.8984 29.668H18.1641C18.8329 29.668 19.375 29.1258 19.375 28.4571V23.6133C19.375 22.9447 18.8329 22.4024 18.1641 22.4024H10.8984C10.2296 22.4024 9.6875 22.9447 9.6875 23.6133V28.4571C9.6875 29.1258 10.2296 29.668 10.8984 29.668ZM12.1094 24.8243H16.9531V27.2462H12.1094V24.8243Z" fill="#FFC741"/>
<path d="M51.1016 40.2035C51.7703 40.2035 52.3125 39.6613 52.3125 38.9926C52.3125 38.3238 51.7703 37.7816 51.1016 37.7816C50.4328 37.7816 49.8906 38.3238 49.8906 38.9926C49.8906 39.6613 50.4328 40.2035 51.1016 40.2035Z" fill="#FFC741"/>
<path d="M45.6523 40.2035C46.3211 40.2035 46.8633 39.6613 46.8633 38.9926C46.8633 38.3238 46.3211 37.7816 45.6523 37.7816C44.9836 37.7816 44.4414 38.3238 44.4414 38.9926C44.4414 39.6613 44.9836 40.2035 45.6523 40.2035Z" fill="#FFC741"/>
<path d="M40.2031 40.2035C40.8719 40.2035 41.4141 39.6613 41.4141 38.9926C41.4141 38.3238 40.8719 37.7816 40.2031 37.7816C39.5343 37.7816 38.9922 38.3238 38.9922 38.9926C38.9922 39.6613 39.5343 40.2035 40.2031 40.2035Z" fill="#FFC741"/>
<path d="M51.1016 31.727H45.0808C44.412 31.727 43.8699 32.2692 43.8699 32.9379C43.8699 33.6066 44.412 34.1489 45.0808 34.1489H51.1016C51.7704 34.1489 52.3125 33.6066 52.3125 32.9379C52.3125 32.2692 51.7704 31.727 51.1016 31.727Z" fill="#FFC741"/>
<path d="M10.8984 34.1489H16.9531C17.6219 34.1489 18.1641 33.6066 18.1641 32.9379C18.1641 32.2692 17.6219 31.727 16.9531 31.727H10.8984C10.2296 31.727 9.6875 32.2692 9.6875 32.9379C9.6875 33.6066 10.2296 34.1489 10.8984 34.1489Z" fill="#FFC741"/>
</svg>
