<svg width="63" height="63" viewBox="0 0 63 63" fill="none" xmlns="http://www.w3.org/2000/svg">
<path d="M61.6809 42.5724L59.4918 40.3894C58.713 39.6116 57.6751 39.1832 56.5692 39.1832C55.862 39.1832 55.1832 39.3592 54.5816 39.6888L50.4563 35.5684L50.6573 35.3678C52.3308 33.6909 52.3302 30.966 50.6571 29.2948C50.0593 28.6958 49.3132 28.2964 48.5 28.1283C48.612 27.7418 48.6709 27.337 48.6709 26.9227C48.6709 25.7716 48.2238 24.6922 47.4144 23.8861C46.8164 23.2871 46.0704 22.8877 45.2572 22.7196C45.3692 22.3332 45.4281 21.9284 45.4281 21.514C45.4281 20.3628 44.981 19.2836 44.1702 18.4762C43.558 17.8647 42.8053 17.4776 42.0149 17.3128C42.4377 15.8551 42.0765 14.215 40.9297 13.0662C39.9751 12.1157 38.6798 11.7072 37.4315 11.8396L29.2568 10.2923C28.0101 10.0558 26.4532 9.89938 25.4704 10.7958C25.4084 10.8524 25.3452 10.9175 25.2829 10.9899C23.7591 10.4345 21.9818 10.7653 20.7616 11.9842C19.952 12.7927 19.5061 13.8716 19.5061 15.0221C19.5061 15.4365 19.5648 15.8412 19.6767 16.2278C18.8643 16.3958 18.1192 16.7947 17.5233 17.3917C16.7122 18.1995 16.2649 19.2772 16.2641 20.4263C16.2637 20.8417 16.3226 21.2478 16.4351 21.6354C15.6224 21.8029 14.8768 22.2011 14.2791 22.7981C13.468 23.6084 13.0213 24.6879 13.0213 25.8378C13.0213 26.7185 13.2842 27.5576 13.7715 28.2664C13.1563 28.4749 12.5927 28.822 12.1208 29.2934C10.4462 30.966 10.4456 33.691 12.1219 35.3703L12.3221 35.5697L8.19638 39.6879C6.66309 38.966 4.77395 39.2365 3.50866 40.5002L1.31818 42.6845C0.53905 43.4626 0.110108 44.5007 0.109985 45.6072C0.109985 46.7139 0.53905 47.7521 1.31818 48.5303L4.05191 51.2607C4.5361 51.7444 5.32077 51.7439 5.80435 51.2598C6.28805 50.7756 6.28755 49.9909 5.80336 49.5073L3.06963 46.7769C2.75931 46.467 2.5884 46.0516 2.5884 45.6074C2.5884 45.1633 2.75931 44.748 3.06889 44.4388L5.2595 42.2543C5.80681 41.7076 6.64451 41.6262 7.28066 42.0065C7.32545 42.0738 7.37726 42.1378 7.43656 42.1972C7.54275 42.3037 7.66396 42.3852 7.79266 42.4449L20.3549 54.9887C20.4146 55.1188 20.4965 55.2412 20.6034 55.3482C20.7075 55.4525 20.8263 55.5331 20.9523 55.5924C21.2179 55.8927 21.3647 56.2764 21.3647 56.6856C21.3647 57.1298 21.1938 57.5451 20.8835 57.8551L18.6951 60.0409C18.0485 60.6847 16.9967 60.6845 16.352 60.0428L13.6183 57.3089C13.1344 56.8249 12.3498 56.8249 11.8659 57.3089C11.3819 57.7928 11.3819 58.5774 11.8659 59.0613L14.6016 61.7973C15.4068 62.5991 16.4643 62.9999 17.5222 62.9999C18.5804 62.9999 19.6391 62.5985 20.4453 61.7959L22.6351 59.6087C23.4142 58.8305 23.8433 57.7924 23.8433 56.6856C23.8433 55.8958 23.6236 55.1415 23.2152 54.4911L27.8585 49.8535C27.8635 49.8484 27.8684 49.8434 27.8734 49.8383C28.4051 49.2887 29.8857 49.3915 31.3176 49.491C32.335 49.5617 33.4692 49.6403 34.5774 49.5126L39.6622 54.5914C39.3328 55.192 39.1569 55.87 39.1569 56.576C39.1569 57.6816 39.586 58.719 40.3651 59.4973L42.555 61.6844C43.3336 62.4622 44.3715 62.8906 45.4775 62.8906C46.5833 62.8906 47.6212 62.4623 48.4 61.6844L61.6818 48.4187C62.4609 47.6406 62.89 46.6026 62.89 45.4959C62.8898 44.3893 62.4608 43.3513 61.6809 42.5724V42.5724ZM28.7954 12.7274L34.171 13.7448L30.9534 16.9612C30.4557 16.722 29.7735 16.2758 29.0251 15.5599C28.0008 14.58 27.268 13.4485 27.2013 12.7429C27.2012 12.7425 27.2012 12.7421 27.2012 12.7418C27.2012 12.7416 27.2011 12.7415 27.2011 12.7414C27.1963 12.6907 27.1951 12.6502 27.1957 12.6193C27.3577 12.58 27.7881 12.5363 28.7954 12.7274ZM22.5129 13.7377C23.1407 13.1105 24.1159 13.0382 24.8253 13.5186C25.2273 15.2041 26.6651 16.7317 27.312 17.3506C27.7913 17.8093 29.3296 19.1846 30.8822 19.5626C31.0922 19.8637 31.2065 20.2227 31.2065 20.6014C31.2065 21.0893 31.0189 21.5454 30.6769 21.887C30.336 22.2286 29.8791 22.4166 29.3903 22.4166C28.9015 22.4166 28.4446 22.2286 28.102 21.8854L28.1019 21.8853L28.1013 21.8846L22.5128 16.3062C22.172 15.966 21.9844 15.5098 21.9844 15.0221C21.9845 14.5342 22.1722 14.0781 22.5129 13.7377V13.7377ZM19.2748 19.1453C19.6157 18.8038 20.0721 18.6157 20.5601 18.6157C21.0487 18.6157 21.5066 18.8042 21.8498 19.147L26.3499 23.6381C27.0585 24.3478 27.0585 25.5027 26.3523 26.21C26.0095 26.5514 25.551 26.7395 25.0614 26.7395C24.5718 26.7395 24.1134 26.5514 23.772 26.2115L23.7719 26.2113L20.358 22.7981C20.3527 22.7929 20.3469 22.7879 20.3415 22.7825L19.2734 21.715C18.9307 21.3726 18.7421 20.9157 18.7425 20.4281C18.743 19.9422 18.931 19.4876 19.2748 19.1453V19.1453ZM16.0305 24.5517C16.3717 24.211 16.8291 24.0233 17.3186 24.0233C17.804 24.0233 18.2574 24.2083 18.5972 24.5431L22.0216 27.9659C22.363 28.306 22.5511 28.7616 22.5511 29.2489C22.5511 29.736 22.363 30.1917 22.0202 30.5331C21.6791 30.8737 21.2222 31.0614 20.7336 31.0614C20.2443 31.0614 19.7859 30.8732 19.4443 30.5331L18.2029 29.2932C18.2027 29.2928 18.2023 29.2926 18.2021 29.2923L16.0307 27.1235C15.6883 26.7815 15.4998 26.3248 15.4998 25.8375C15.4998 25.3504 15.6883 24.8935 16.0305 24.5517V24.5517ZM13.8723 31.0468C14.215 30.7045 14.673 30.516 15.1618 30.516C15.6506 30.516 16.1084 30.7044 16.451 31.0465L17.6941 32.2881C18.0357 32.6282 18.2237 33.0839 18.2237 33.5711C18.2237 34.0584 18.0356 34.5139 17.6915 34.8567C17.3506 35.1982 16.8937 35.3863 16.405 35.3863C15.9161 35.3863 15.4592 35.1983 15.1158 34.8543L14.9601 34.6992C14.9581 34.6972 14.9565 34.6949 14.9545 34.693C14.9521 34.6908 14.9497 34.6888 14.9473 34.6866L13.8735 33.6169C13.1649 32.9068 13.1643 31.754 13.8723 31.0468ZM39.1257 45.1305C38.642 44.6462 37.8573 44.6459 37.3733 45.1294L36.2708 46.2306C35.2231 47.2782 33.3249 47.1463 31.4892 47.0189C29.4957 46.8804 27.4343 46.7374 26.1003 48.1069L21.5359 52.6658L10.1217 41.2683L14.1611 37.2362C14.8287 37.6455 15.5991 37.8649 16.4052 37.8649C17.5568 37.8649 18.6367 37.4185 19.4432 36.6104C20.2552 35.8017 20.7025 34.7225 20.7025 33.5713C20.7025 33.5606 20.7018 33.55 20.7018 33.5393C20.7125 33.5394 20.7232 33.54 20.7339 33.54C21.8839 33.54 22.9629 33.095 23.7705 32.2883C24.5825 31.4796 25.0298 30.4002 25.0298 29.2491C25.0298 29.2384 25.0291 29.2278 25.0291 29.2171C25.0399 29.2171 25.0507 29.2179 25.0617 29.2179C26.2113 29.2179 27.2909 28.7733 28.104 27.9635C28.9481 27.1181 29.3656 26.005 29.3576 24.8943C29.3687 24.8944 29.3798 24.895 29.3908 24.895C30.5424 24.8949 31.6222 24.4486 32.43 23.6393C33.2395 22.8308 33.6854 21.7519 33.6854 20.6014C33.6854 19.7968 33.4666 19.0276 33.0587 18.3613L36.5992 14.8224C36.863 14.5597 37.1883 14.3948 37.5293 14.3267C37.5662 14.3228 37.6026 14.3169 37.6387 14.3098C38.1857 14.2343 38.7602 14.4031 39.1786 14.8198C39.8872 15.5296 39.8872 16.6846 39.1812 17.3918L38.1029 18.4657C38.0993 18.4692 38.0955 18.4724 38.092 18.476L36.8501 19.7158C36.3657 20.1994 36.3653 20.9841 36.8489 21.4683C37.3328 21.9526 38.1173 21.9529 38.6014 21.4694L39.6839 20.3883C39.6842 20.388 39.6844 20.3878 39.6847 20.3875L39.8483 20.2245C40.5589 19.5204 41.7102 19.5219 42.42 20.2308C42.7616 20.5709 42.9497 21.0265 42.9497 21.5138C42.9497 22.0009 42.7616 22.4566 42.4173 22.7994L41.3329 23.886C41.3328 23.8861 41.3327 23.8862 41.3325 23.8865L40.0907 25.1232C39.6058 25.6062 39.6042 26.3909 40.0872 26.8757C40.5701 27.3606 41.3547 27.3621 41.8396 26.8792L43.0871 25.6368C43.428 25.2953 43.8849 25.1072 44.3736 25.1072C44.8625 25.1072 45.3195 25.2953 45.6629 25.6393C46.0045 25.9795 46.1925 26.4352 46.1925 26.9224C46.1925 27.4096 46.0045 27.8652 45.6609 28.2073L43.499 30.3701C43.0152 30.8542 43.0153 31.6387 43.4993 32.1225C43.7413 32.3644 44.0583 32.4853 44.3754 32.4853C44.6926 32.4853 45.0098 32.3642 45.2517 32.1221L46.3113 31.0622C46.3173 31.0564 46.3238 31.0514 46.3298 31.0454C46.6708 30.7038 47.1277 30.5158 47.6164 30.5158C48.1053 30.5158 48.5621 30.7038 48.9043 31.0466C49.6122 31.7537 49.6116 32.9067 48.9043 33.6152L47.8271 34.6912C47.8267 34.6916 47.8262 34.692 47.8258 34.6924C47.8255 34.6927 47.8251 34.6932 47.8247 34.6936L46.1149 36.4014C45.6307 36.885 45.6302 37.6697 46.1138 38.1539C46.3558 38.3962 46.6733 38.5174 46.9906 38.5174C47.3074 38.5174 47.6244 38.3966 47.8663 38.155L48.7027 37.3196L52.7112 41.3235L41.298 52.7228L37.2086 48.6384C37.4937 48.455 37.7665 48.2394 38.0226 47.9834L39.1245 46.8829C39.6089 46.3994 39.6094 45.6147 39.1257 45.1305V45.1305ZM59.9302 46.6652L46.6484 59.9309C46.3377 60.2412 45.9218 60.4121 45.4774 60.4121C45.0329 60.4121 44.617 60.2412 44.3062 59.9308L42.1163 57.7436C41.806 57.4338 41.6351 57.0191 41.6351 56.576C41.6351 56.133 41.806 55.7184 42.1163 55.4084L55.3981 42.1427C55.709 41.8323 56.1247 41.6614 56.5693 41.6614C57.0137 41.6614 57.4296 41.8323 57.7412 42.1435L59.9303 44.3264C60.2407 44.6364 60.4116 45.0516 60.4116 45.4958C60.4114 45.9401 60.2405 46.3554 59.9302 46.6652V46.6652Z" fill="#FFC741"/>
<path d="M7.72964 53.3044C7.24988 53.7924 7.25653 54.577 7.74465 55.0568L7.74822 55.0602C7.98903 55.297 8.30169 55.4149 8.61423 55.4149C8.93501 55.4149 9.25579 55.2907 9.49881 55.0435C9.97857 54.5555 9.97008 53.7691 9.48207 53.2894C8.99419 52.8096 8.20965 52.8164 7.72964 53.3044V53.3044Z" fill="#FFC741"/>
<path d="M42.1566 43.3453C42.3451 43.3453 42.5363 43.3024 42.7158 43.2119C43.3269 42.9037 43.5724 42.1585 43.2643 41.5475C42.956 40.9364 42.2107 40.6908 41.5998 40.999L41.5929 41.0025C40.9819 41.3107 40.7398 42.0542 41.0479 42.6652C41.2655 43.0969 41.703 43.3453 42.1566 43.3453V43.3453Z" fill="#FFC741"/>
</svg>
