<svg width="9" height="11" viewBox="0 0 9 11" fill="none" xmlns="http://www.w3.org/2000/svg">
<path d="M8.83329 5.49992C8.83329 4.90246 8.34742 4.41659 7.74996 4.41659H7.20829V2.79159C7.20829 1.29821 5.99333 0.083252 4.49996 0.083252C3.00658 0.083252 1.79163 1.29821 1.79163 2.79159V4.41659H1.24996C0.652501 4.41659 0.166626 4.90246 0.166626 5.49992V9.83325C0.166626 10.4307 0.652501 10.9166 1.24996 10.9166H7.74996C8.34742 10.9166 8.83329 10.4307 8.83329 9.83325V5.49992ZM2.87496 2.79159C2.87496 1.89567 3.60404 1.16659 4.49996 1.16659C5.39588 1.16659 6.12496 1.89567 6.12496 2.79159V4.41659H2.87496V2.79159Z" fill="#222222"/>
</svg>
