<svg width="39" height="23" viewBox="0 0 39 23" fill="none" xmlns="http://www.w3.org/2000/svg">
<rect width="39" height="23" rx="3" fill="white" fill-opacity="0.15"/>
<path d="M24.8507 9.72065C24.9364 10.1194 24.9258 10.6032 24.8224 11.1734C24.4101 13.2829 23.0679 14.3369 20.7969 14.3369H20.4839C20.3681 14.3362 20.2562 14.378 20.1694 14.4544C20.0793 14.5324 20.0194 14.6394 20.0001 14.7569L19.971 14.8908L19.5793 17.3551L19.5644 17.462C19.5442 17.5804 19.4821 17.6875 19.3895 17.7638C19.3021 17.8407 19.1893 17.8826 19.0729 17.8814H17.2857C17.241 17.8837 17.1964 17.8753 17.1556 17.8568C17.1148 17.8383 17.079 17.8103 17.0513 17.7751C17.0231 17.7392 17.0029 17.6977 16.9919 17.6534C16.9809 17.6091 16.9794 17.5629 16.9875 17.518C17.0307 17.2538 17.0924 16.8536 17.1766 16.3216C17.2595 15.7904 17.3226 15.3909 17.3658 15.1252C17.409 14.8596 17.472 14.4608 17.5584 13.9317C17.6441 13.4019 17.7086 13.0038 17.7504 12.7382C17.7738 12.5625 17.8772 12.4754 18.0571 12.4754H18.9893C19.6218 12.4846 20.1807 12.435 20.6716 12.3259C21.5017 12.1403 22.1831 11.7989 22.7158 11.2995C23.201 10.8483 23.5679 10.2639 23.8208 9.54782C23.9356 9.2149 24.017 8.89828 24.0701 8.60007C24.0744 8.57103 24.0801 8.55332 24.0879 8.54765C24.0935 8.53986 24.1034 8.53774 24.1126 8.53986C24.128 8.54673 24.1427 8.55503 24.1566 8.56465C24.5277 8.84657 24.7615 9.2312 24.8507 9.72065ZM23.6267 7.71182C23.6267 8.2197 23.5176 8.77999 23.2974 9.3934C22.917 10.4998 22.2016 11.2478 21.1461 11.6374C20.6092 11.8279 20.0114 11.9264 19.3505 11.9384C19.3505 11.9427 19.1373 11.9434 18.7102 11.9434L18.0706 11.9384C17.5946 11.9384 17.3148 12.1651 17.2298 12.6213C17.2206 12.6588 17.0187 13.9175 16.6241 16.396C16.6185 16.4427 16.5901 16.4682 16.5384 16.4682H14.4382C14.3887 16.4693 14.3396 16.4593 14.2944 16.4391C14.2492 16.4189 14.2091 16.3889 14.1769 16.3514C14.1434 16.3144 14.1187 16.2703 14.1046 16.2225C14.0905 16.1747 14.0874 16.1243 14.0954 16.0751L15.7472 5.59532C15.7684 5.46122 15.8379 5.33951 15.9427 5.2532C16.0449 5.16525 16.1755 5.11743 16.3104 5.11861H20.5703C20.7318 5.11861 20.9634 5.14978 21.2637 5.2114C21.5669 5.2709 21.8311 5.34882 22.0592 5.43878C22.5678 5.63286 22.9559 5.92611 23.2244 6.31499C23.4929 6.70599 23.6267 7.16995 23.6267 7.71182Z" fill="black"/>
</svg>
