<svg width="39" height="23" viewBox="0 0 39 23" fill="none" xmlns="http://www.w3.org/2000/svg">
<rect width="39" height="23" rx="3" fill="white" fill-opacity="0.15"/>
<path d="M18.9798 16.2746C19.0258 16.3134 19.0748 16.3522 19.1231 16.3902C18.1601 17.0311 17.0286 17.3721 15.8717 17.3702C14.9556 17.3702 14.0522 17.1558 13.2338 16.7442C12.4154 16.3325 11.7047 15.7351 11.1585 14.9996C10.6123 14.2642 10.2458 13.4111 10.0883 12.5086C9.93077 11.6061 9.98665 10.6793 10.2514 9.80232C10.5162 8.92531 10.9826 8.12244 11.6132 7.45791C12.2438 6.79339 13.0211 6.28566 13.8831 5.97534C14.745 5.66501 15.6676 5.5607 16.5771 5.67075C17.4866 5.7808 18.3577 6.10215 19.1208 6.60911C19.0732 6.64949 19.0258 6.68669 18.9901 6.72786C18.3043 7.31958 17.7541 8.05213 17.3769 8.87563C16.9997 9.69914 16.8044 10.5943 16.8043 11.5C16.8045 12.4051 16.9988 13.2997 17.3741 14.1233C17.7494 14.9469 18.297 15.6805 18.9798 16.2746ZM23.129 5.62903C21.9256 5.62903 20.8086 5.99003 19.8792 6.60911C19.9267 6.64949 19.9742 6.68669 20.0098 6.72786C20.6956 7.31958 21.2458 8.05213 21.623 8.87563C22.0002 9.69914 22.1955 10.5943 22.1956 11.5C22.1951 12.4051 22.0006 13.2995 21.6254 14.1231C21.2501 14.9467 20.7027 15.6803 20.0201 16.2746C19.9742 16.3134 19.9251 16.3522 19.8768 16.3902C20.8398 17.0313 21.9713 17.3724 23.1282 17.3702C23.8992 17.3705 24.6628 17.2189 25.3752 16.9241C26.0876 16.6292 26.735 16.1968 27.2803 15.6517C27.8256 15.1065 28.2581 14.4593 28.5532 13.7469C28.8482 13.0346 29.0001 12.2711 29 11.5C28.9997 9.94301 28.3811 8.44982 27.2802 7.34884C26.1792 6.24786 24.686 5.62924 23.129 5.62903ZM19.5 6.88778C18.8006 7.43583 18.2353 8.13602 17.8469 8.93519C17.4586 9.73436 17.2574 10.6115 17.2587 11.5C17.2572 12.3887 17.4583 13.266 17.8466 14.0654C18.235 14.8647 18.8004 15.565 19.5 16.1131C20.1993 15.5649 20.7647 14.8645 21.153 14.0652C21.5413 13.2659 21.7425 12.3887 21.7412 11.5C21.7425 10.6115 21.5413 9.73436 21.153 8.93519C20.7646 8.13602 20.1993 7.43583 19.5 6.88778Z" fill="black"/>
</svg>
