<svg width="39" height="23" viewBox="0 0 39 23" fill="none" xmlns="http://www.w3.org/2000/svg">
<rect width="39" height="23" rx="3" fill="white" fill-opacity="0.15"/>
<path d="M24.8988 8.26203C24.2937 8.06854 23.6547 7.97097 23.0113 7.97382C20.9338 7.97382 19.4656 8.90244 19.4566 10.2314C19.4396 11.2082 20.4974 11.7588 21.2969 12.0879C22.1184 12.425 22.393 12.6349 22.3889 12.9339C22.3849 13.3946 21.7324 13.6002 21.132 13.6002C20.2976 13.6002 19.845 13.4996 19.1471 13.2408L18.8879 13.1323L18.5921 14.6675C19.0999 14.8508 20.0099 15.0118 20.9492 15.0269C23.1624 15.0269 24.6054 14.1062 24.6217 12.6867C24.6388 11.9083 24.0724 11.3174 22.8659 10.8301C22.1379 10.516 21.6821 10.3018 21.6821 9.97985C21.6821 9.69522 22.0713 9.39622 22.8838 9.39622C23.4229 9.38427 23.959 9.47216 24.4576 9.65425L24.6566 9.7326L24.9483 8.25413L24.8988 8.26203ZM30.2994 8.10103H28.6744C28.1666 8.10103 27.7896 8.22107 27.5654 8.66669L24.4421 14.9292H26.6513L27.0966 13.9035L29.7916 13.9071C29.8591 14.1464 30.0492 14.9284 30.0492 14.9284H32L30.2994 8.10103ZM16.465 8.04497H18.5686L17.2523 14.876H15.1488L16.465 8.04138V8.04497ZM11.1163 11.8069L11.3316 12.7578L13.3921 8.10103H15.6224L12.3042 14.9177H10.0836L8.26363 9.14538C8.24968 9.09743 8.22484 9.0525 8.19061 9.01332C8.15639 8.97415 8.1135 8.94156 8.06456 8.91753C7.41081 8.61674 6.7173 8.38907 6 8.23975L6.02519 8.09672H9.419C9.87644 8.11182 10.2486 8.23975 10.3753 8.67388L11.1163 11.8105V11.8069ZM27.6962 12.507L28.5387 10.5944C28.5257 10.6123 28.7118 10.2012 28.8174 9.94247L28.9613 10.5297L29.4488 12.5027H27.6962V12.507Z" fill="black"/>
</svg>
