<svg width="39" height="23" viewBox="0 0 39 23" fill="none" xmlns="http://www.w3.org/2000/svg">
<rect width="39" height="23" rx="3" fill="white" fill-opacity="0.15"/>
<g clip-path="url(#clip0_1_1473)">
<path d="M29.4667 19.0008H9.53333C9.12667 19.0008 8.73666 18.8427 8.4491 18.5614C8.16155 18.2801 8 17.8986 8 17.5008V11.1908H9.10464L9.35381 10.6008H9.91156L10.1601 11.1883H12.3336V10.7414L12.5278 11.1914H13.6561L13.8503 10.7339V11.1901H19.2508V10.2251H19.3531C19.4259 10.2276 19.447 10.2339 19.447 10.3526V11.1914H22.2408V10.967C22.5264 11.1089 22.8631 11.192 23.2202 11.192L23.2809 11.1914H23.2777H24.4533L24.705 10.6039H25.2628L25.5087 11.1914H27.7742V10.6326L28.1167 11.1914H29.9286V7.50139H28.1352V7.93701L27.8841 7.50139H26.0403V7.93701L25.8097 7.50139H23.3199C22.9427 7.48274 22.5669 7.55868 22.2281 7.72201L22.2415 7.71639V7.50139H20.5241V7.71639C20.3163 7.55611 20.0537 7.47944 19.7901 7.50201H19.7939H13.5181L13.0971 8.45514L12.6645 7.50201H10.6878V7.93764L10.4699 7.50201H8.78328L8.00192 9.25202V5.50201C8.00192 5.10419 8.16346 4.72266 8.45102 4.44135C8.73858 4.16005 9.12858 4.00201 9.53525 4.00201H29.4686C29.8752 4.00201 30.2653 4.16005 30.5528 4.44135C30.8404 4.72266 31.0019 5.10419 31.0019 5.50201V12.052H29.8053C29.7861 12.0508 29.7631 12.0508 29.7407 12.0508C29.4635 12.0508 29.206 12.132 28.9913 12.2714L28.9964 12.2683V12.052H27.2267C26.9502 12.0371 26.6767 12.1139 26.4505 12.2701L26.4543 12.2676V12.0514H23.2944V12.2676C23.0357 12.1249 22.7435 12.0504 22.4466 12.0514H22.4216H22.4229H20.3382V12.2676C20.0659 12.097 19.7427 12.021 19.4208 12.052L19.4265 12.0514H17.0939L16.5598 12.6164L16.0602 12.0514H12.5757V15.7439H15.9951L16.5451 15.1701L17.0633 15.7439H19.171V14.8795H19.4649C19.7474 14.8903 20.0293 14.8442 20.2929 14.7439L20.2788 14.7489V15.7451H22.0166V14.7833H22.1003C22.2063 14.7833 22.2172 14.787 22.2172 14.892V15.7458H27.4982L27.5628 15.747C27.8656 15.747 28.148 15.6583 28.3831 15.5064L28.3774 15.5095V15.7458H30.0525L30.1324 15.747C30.4461 15.747 30.7444 15.6839 31.0153 15.5695L31.0006 15.5751V17.5014C31.0006 17.8992 30.8391 18.2807 30.5515 18.562C30.264 18.8434 29.874 19.0014 29.4673 19.0014L29.4667 19.0008ZM21.4837 15.2264H20.8334V12.5795H22.3258C22.5954 12.5551 22.8668 12.5994 23.1136 12.7083L23.1033 12.7045C23.3033 12.812 23.4368 13.017 23.4368 13.252L23.4356 13.2939V13.292L23.4362 13.3158C23.4362 13.6195 23.249 13.8808 22.9807 13.9945L22.9756 13.9964C23.104 14.0414 23.2113 14.1183 23.2912 14.2176L23.2924 14.2189C23.3826 14.365 23.4204 14.5363 23.3998 14.7058L23.4004 14.702V15.2258H22.7513V14.8945C22.782 14.7142 22.745 14.529 22.6472 14.3733L22.6491 14.3764C22.5816 14.3263 22.5045 14.2901 22.4224 14.27C22.3402 14.25 22.2548 14.2464 22.1712 14.2595L22.175 14.2589H21.4837V15.2258V15.2264ZM21.4837 13.1264V13.7208H22.2696C22.3806 13.7308 22.4922 13.7114 22.5929 13.6645L22.589 13.6664C22.6301 13.6404 22.664 13.6048 22.6874 13.5628C22.7108 13.5207 22.7231 13.4736 22.7232 13.4258L22.7226 13.4114V13.412C22.7257 13.3642 22.715 13.3166 22.6916 13.2745C22.6682 13.2325 22.633 13.1978 22.5903 13.1745L22.589 13.1739C22.4921 13.1315 22.3856 13.1142 22.2798 13.1239H22.2824L21.4837 13.1264ZM15.7178 15.2258H13.1577V12.5795H15.758L16.5534 13.447L17.3757 12.5795H19.4412C20.1747 12.5795 20.5312 12.8651 20.5312 13.4514C20.5312 14.0483 20.1625 14.3383 19.4067 14.3383H18.5985V15.2251H17.3418L16.5458 14.3508L15.7184 15.2258H15.7178ZM17.9545 12.8633L16.9617 13.907L17.9545 14.9845V12.8633ZM13.8024 14.1476V14.6739H15.3919L16.1267 13.8976L15.4201 13.1264H13.8017V13.6076H15.2214V14.147L13.8024 14.1476ZM18.5985 13.127V13.8008H19.4336C19.6891 13.8008 19.8361 13.6733 19.8361 13.4508C19.8361 13.2383 19.6993 13.1264 19.4406 13.1264L18.5985 13.127ZM30.1228 15.227H28.8744V14.6583H30.1177C30.2107 14.6708 30.3051 14.647 30.3803 14.592L30.3796 14.5926C30.4036 14.5709 30.4228 14.5445 30.4359 14.5151C30.4489 14.4857 30.4557 14.454 30.4557 14.422V14.4201V14.412C30.4557 14.3804 30.4487 14.3491 30.4351 14.3204C30.4216 14.2917 30.4018 14.2662 30.3771 14.2458C30.311 14.199 30.2294 14.1781 30.1484 14.187H30.1496L30.0302 14.1833C29.4462 14.1683 28.785 14.1508 28.785 13.3676C28.785 12.9864 29.029 12.5795 29.712 12.5795H31.0006V13.1433H29.8219C29.7308 13.1333 29.6389 13.1512 29.5587 13.1945L29.5612 13.1933C29.5297 13.2136 29.5043 13.2418 29.4878 13.275C29.4713 13.3082 29.4642 13.3452 29.4673 13.382V13.3814V13.3883C29.4673 13.4304 29.4809 13.4714 29.5061 13.5055C29.5314 13.5397 29.567 13.5651 29.6079 13.5783L29.6091 13.5789C29.6901 13.6033 29.7749 13.6135 29.8596 13.6089H29.8577L30.2084 13.6176C30.4728 13.5918 30.737 13.6688 30.9438 13.832L30.9419 13.8308C30.961 13.8458 30.9776 13.862 30.9923 13.8801L30.993 13.8808L31.0006 14.8883C30.8932 15.0111 30.7565 15.1062 30.6027 15.1651C30.4488 15.2241 30.2825 15.2451 30.1183 15.2264L30.1228 15.227ZM27.5998 15.227H26.3399V14.6583H27.5934C27.6872 14.6703 27.7822 14.6466 27.8586 14.592L27.8573 14.5926C27.8812 14.5708 27.9002 14.5443 27.9131 14.515C27.9261 14.4856 27.9328 14.454 27.9327 14.422V14.4201V14.4158C27.9327 14.3836 27.9256 14.3518 27.9121 14.3225C27.8985 14.2932 27.8788 14.267 27.8541 14.2458C27.7868 14.199 27.7043 14.1781 27.6222 14.187H27.6235L27.5046 14.1833C26.9226 14.1683 26.262 14.1508 26.262 13.3676C26.262 12.9864 26.5048 12.5795 27.1865 12.5795H28.4821V13.1433H27.2964C27.2059 13.1334 27.1146 13.1513 27.0351 13.1945L27.0376 13.1933C27.004 13.2159 26.9774 13.2469 26.9603 13.2831C26.9433 13.3193 26.9366 13.3594 26.9409 13.399C26.9452 13.4386 26.9604 13.4764 26.9849 13.5083C27.0093 13.5401 27.0421 13.565 27.0798 13.5801L27.0811 13.5808C27.1631 13.6054 27.249 13.6155 27.3347 13.6108H27.3328L27.681 13.6195C27.9468 13.5945 28.2121 13.6716 28.4208 13.8345L28.4189 13.8326C28.4891 13.9084 28.5425 13.9975 28.5757 14.0944C28.6089 14.1913 28.6212 14.294 28.6118 14.3958V14.3926C28.6137 14.9445 28.2719 15.2258 27.5979 15.2258L27.5998 15.227ZM25.9528 15.227H23.7933V12.5789H25.9509V13.1258H24.4386V13.607H25.9157V14.1464H24.4386V14.6726L25.9528 14.6751V15.2251V15.227ZM27.2114 10.6733H25.8946L25.6429 10.0833H24.3L24.0559 10.6733H23.2995C22.9598 10.6908 22.6252 10.5861 22.359 10.3789L22.3622 10.3808C22.2357 10.2442 22.1397 10.0834 22.0803 9.90851C22.0209 9.73364 21.9994 9.54859 22.0172 9.36514L22.0166 9.37014C22.0001 9.18332 22.0227 8.99517 22.0829 8.81714C22.1431 8.63911 22.2396 8.4749 22.3667 8.33451L22.3654 8.33576C22.4996 8.221 22.6564 8.13448 22.8263 8.08158C22.9961 8.02868 23.1752 8.01053 23.3525 8.02826L23.3474 8.02764H23.9735V8.59201H23.3602C23.2704 8.58071 23.1792 8.5889 23.0931 8.61602C23.007 8.64313 22.928 8.6885 22.8618 8.74889L22.8625 8.74826C22.7259 8.91939 22.6596 9.13428 22.6766 9.35077V9.34764C22.6562 9.57006 22.7201 9.79204 22.8561 9.97139L22.8542 9.96889C22.9812 10.0704 23.1438 10.1193 23.3071 10.1051H23.3046H23.5946L24.5089 8.02389H25.48L26.5744 10.5239V8.02389H27.5589L28.6949 9.86639V8.02389H29.3593V10.6689H28.4368L27.2101 8.68264V10.6689L27.2114 10.6733ZM24.9759 8.47451L24.5306 9.52951H25.4231L24.9759 8.47451ZM18.7154 10.672H18.0689V8.02576H19.5562C19.8277 7.9982 20.1018 8.04336 20.3491 8.15639L20.3395 8.15264C20.4389 8.20643 20.5218 8.28529 20.5796 8.38102C20.6373 8.47675 20.6678 8.58586 20.6679 8.69701L20.6666 8.74076V8.73889V8.75826C20.6667 8.90261 20.6241 9.0439 20.5441 9.16519C20.4641 9.28647 20.35 9.38259 20.2156 9.44202L20.2104 9.44389C20.3389 9.49139 20.4468 9.56764 20.5292 9.66514L20.5305 9.66639C20.6217 9.813 20.6593 9.98553 20.6372 10.1558L20.6379 10.152V10.6714H19.9856L19.983 10.3376V10.2876C20.0062 10.1245 19.9693 9.95851 19.8789 9.81952L19.8808 9.82264C19.8131 9.77401 19.7363 9.73897 19.6547 9.71956C19.5731 9.70014 19.4884 9.69673 19.4054 9.70951L19.4093 9.70889H18.7161V10.6714L18.7154 10.672ZM18.7154 8.57639V9.16389H19.5C19.6108 9.17565 19.7228 9.15613 19.8226 9.10764L19.8194 9.10889C19.8604 9.08455 19.8942 9.05032 19.9177 9.0095C19.9412 8.96867 19.9536 8.92262 19.9536 8.87576L19.953 8.85826V8.85889C19.9562 8.8114 19.9452 8.76402 19.9212 8.72259C19.8973 8.68116 19.8614 8.6475 19.8182 8.62576L19.8169 8.62514C19.7197 8.58433 19.6138 8.56718 19.5083 8.57514H19.5102L18.7154 8.57639ZM11.8691 10.672H10.5556L10.307 10.082H8.96025L8.70981 10.672H8.00703L9.16533 8.02576H10.1256L11.2251 10.5301V8.02576H12.2799L13.1258 9.82014L13.9033 8.02576H14.9799V10.6708H14.3154L14.3141 8.60076L13.3769 10.6714H12.8096L11.8697 8.59764V10.6714L11.8691 10.672ZM9.63044 8.47451L9.19025 9.52951H10.0732L9.63044 8.47451ZM21.6978 10.6714H21.0384V8.02576H21.6984V10.6708L21.6978 10.6714ZM17.6178 10.6714H15.4622V8.02576H17.6217V8.57576H16.1088V9.05264H17.5852V9.59576H16.1075V10.1245H17.6204V10.6708L17.6178 10.6714Z" fill="black"/>
</g>
<defs>
<clipPath id="clip0_1_1473">
<rect width="23" height="15" fill="white" transform="translate(8 4)"/>
</clipPath>
</defs>
</svg>
