<svg width="34" height="34" viewBox="0 0 34 34" fill="none" xmlns="http://www.w3.org/2000/svg">
<circle opacity="0.8" cx="17" cy="17" r="17" fill="#FFC741"/>
<path d="M17.5001 11.3333C17.3151 11.333 17.1358 11.3974 16.9934 11.5154L12.2434 15.4737C12.0817 15.6081 11.98 15.8012 11.9607 16.0105C11.9414 16.2199 12.0061 16.4283 12.1405 16.59C12.2748 16.7517 12.4679 16.8533 12.6773 16.8726C12.8866 16.8919 13.0951 16.8273 13.2567 16.6929L17.5001 13.1462L21.7434 16.5662C21.8244 16.632 21.9175 16.6811 22.0176 16.7107C22.1176 16.7404 22.2225 16.7499 22.3262 16.7389C22.4299 16.7279 22.5305 16.6964 22.622 16.6464C22.7136 16.5964 22.7943 16.5288 22.8596 16.4475C22.9321 16.3661 22.9871 16.2706 23.0209 16.167C23.0548 16.0634 23.0669 15.9539 23.0565 15.8454C23.0461 15.7369 23.0134 15.6317 22.9605 15.5364C22.9075 15.4411 22.8355 15.3578 22.7488 15.2917L17.9988 11.4679C17.8523 11.3685 17.6767 11.3211 17.5001 11.3333Z" fill="white"/>
<path d="M17.5001 16.3333C17.3151 16.333 17.1358 16.3974 16.9934 16.5154L12.2434 20.4737C12.0817 20.6081 11.98 20.8012 11.9607 21.0105C11.9414 21.2199 12.0061 21.4283 12.1405 21.59C12.2748 21.7517 12.4679 21.8533 12.6773 21.8726C12.8866 21.8919 13.0951 21.8273 13.2567 21.6929L17.5001 18.1462L21.7434 21.5662C21.8244 21.632 21.9175 21.6811 22.0176 21.7107C22.1176 21.7404 22.2225 21.7499 22.3262 21.7389C22.4299 21.7279 22.5305 21.6964 22.622 21.6464C22.7136 21.5964 22.7943 21.5288 22.8596 21.4475C22.9321 21.3661 22.9871 21.2706 23.0209 21.167C23.0548 21.0634 23.0669 20.9539 23.0565 20.8454C23.0461 20.7369 23.0134 20.6317 22.9605 20.5364C22.9075 20.4411 22.8355 20.3578 22.7488 20.2917L17.9988 16.4679C17.8523 16.3685 17.6767 16.3211 17.5001 16.3333Z" fill="white"/>
</svg>
