<svg width="21" height="40" viewBox="0 0 21 40" fill="none" xmlns="http://www.w3.org/2000/svg">
<path d="M17.185 39.8333C16.7617 39.8347 16.3435 39.7413 15.961 39.5599C15.5786 39.3785 15.2417 39.1137 14.975 38.785L1.28999 21.785C0.873261 21.278 0.645443 20.6421 0.645443 19.9858C0.645443 19.3295 0.873261 18.6936 1.28999 18.1866L15.4567 1.18663C15.9376 0.60802 16.6287 0.244151 17.3779 0.175075C18.1271 0.105999 18.873 0.337375 19.4517 0.818301C20.0303 1.29923 20.3941 1.99031 20.4632 2.73952C20.5323 3.48872 20.3009 4.23469 19.82 4.8133L7.15499 20L19.395 35.1866C19.7415 35.6025 19.9615 36.109 20.0292 36.646C20.0969 37.1831 20.0093 37.7283 19.7768 38.2171C19.5443 38.7059 19.1766 39.1179 18.7173 39.4043C18.258 39.6908 17.7263 39.8396 17.185 39.8333Z" fill="white"/>
</svg>
