<svg width="25" height="25" viewBox="0 0 25 25" fill="none" xmlns="http://www.w3.org/2000/svg">
<path d="M13.4792 12.5L19.2361 6.74308C19.3499 6.61023 19.4093 6.43934 19.4026 6.26457C19.3958 6.08979 19.3234 5.924 19.1997 5.80032C19.076 5.67665 18.9102 5.60419 18.7355 5.59744C18.5607 5.59069 18.3898 5.65014 18.257 5.76391L12.5 11.5209L6.74307 5.75696C6.6123 5.6262 6.43495 5.55273 6.25002 5.55273C6.06508 5.55273 5.88773 5.6262 5.75696 5.75696C5.62619 5.88773 5.55273 6.06509 5.55273 6.25002C5.55273 6.43495 5.62619 6.61231 5.75696 6.74308L11.5208 12.5L5.75696 18.257C5.68426 18.3192 5.62522 18.3958 5.58354 18.482C5.54186 18.5681 5.51843 18.662 5.51474 18.7576C5.51104 18.8533 5.52716 18.9486 5.56207 19.0377C5.59699 19.1269 5.64994 19.2078 5.71762 19.2755C5.7853 19.3431 5.86623 19.3961 5.95535 19.431C6.04446 19.4659 6.13983 19.482 6.23547 19.4784C6.33111 19.4747 6.42495 19.4512 6.51111 19.4096C6.59726 19.3679 6.67387 19.3088 6.73613 19.2361L12.5 13.4792L18.257 19.2361C18.3898 19.3499 18.5607 19.4093 18.7355 19.4026C18.9102 19.3958 19.076 19.3234 19.1997 19.1997C19.3234 19.076 19.3958 18.9102 19.4026 18.7355C19.4093 18.5607 19.3499 18.3898 19.2361 18.257L13.4792 12.5Z" fill="#CACACA"/>
</svg>
